<svg width="375" height="1309" viewBox="0 0 375 1309" fill="none" xmlns="http://www.w3.org/2000/svg">
<g clip-path="url(#clip0_489_21560)">
<rect width="375" height="1309" rx="40" fill="#09090B"/>
<rect x="20" y="1182" width="143" height="25" rx="6" fill="#3E4044"/>
<rect x="18" y="115" width="340" height="573" rx="12" fill="white" fill-opacity="0.2"/>
<path fill-rule="evenodd" clip-rule="evenodd" d="M187.5 415.125C205.518 415.125 220.125 400.518 220.125 382.5C220.125 364.482 205.518 349.875 187.5 349.875C169.482 349.875 154.875 364.482 154.875 382.5C154.875 400.518 169.482 415.125 187.5 415.125ZM178.408 365.365L207.677 381.626C208.362 382.007 208.362 382.993 207.677 383.374L178.408 399.635C177.608 400.079 176.625 399.501 176.625 398.586V366.414C176.625 365.499 177.608 364.921 178.408 365.365Z" fill="white" fill-opacity="0.44"/>
<g clip-path="url(#clip1_489_21560)">
<path d="M38 58.0039L30 66.0039L38 74.0039" stroke="#FAFAFA" stroke-width="2" stroke-linecap="round" stroke-linejoin="round"/>
</g>
<path d="M21.6 763V748.8H24.2V763H21.6ZM27.357 763V752.32H29.677L29.777 755.32L29.477 755.2C29.5837 754.453 29.8037 753.853 30.137 753.4C30.4704 752.947 30.877 752.613 31.357 752.4C31.837 752.187 32.3637 752.08 32.937 752.08C33.7237 752.08 34.3837 752.253 34.917 752.6C35.4637 752.947 35.877 753.427 36.157 754.04C36.437 754.64 36.577 755.34 36.577 756.14V763H34.017V756.96C34.017 756.36 33.957 755.853 33.837 755.44C33.717 755.027 33.517 754.713 33.237 754.5C32.9704 754.273 32.6104 754.16 32.157 754.16C31.477 754.16 30.9304 754.4 30.517 754.88C30.117 755.36 29.917 756.053 29.917 756.96V763H27.357ZM39.0367 763V752.32H41.3567L41.4567 755.32L41.1567 755.2C41.2634 754.453 41.4834 753.853 41.8167 753.4C42.1501 752.947 42.5567 752.613 43.0367 752.4C43.5167 752.187 44.0434 752.08 44.6167 752.08C45.4034 752.08 46.0634 752.253 46.5967 752.6C47.1434 752.947 47.5567 753.427 47.8367 754.04C48.1167 754.64 48.2567 755.34 48.2567 756.14V763H45.6967V756.96C45.6967 756.36 45.6367 755.853 45.5167 755.44C45.3967 755.027 45.1967 754.713 44.9167 754.5C44.6501 754.273 44.2901 754.16 43.8367 754.16C43.1567 754.16 42.6101 754.4 42.1967 754.88C41.7967 755.36 41.5967 756.053 41.5967 756.96V763H39.0367ZM55.4345 763.24C54.3812 763.24 53.4545 763.013 52.6545 762.56C51.8679 762.093 51.2545 761.44 50.8145 760.6C50.3879 759.76 50.1745 758.78 50.1745 757.66C50.1745 756.527 50.3879 755.547 50.8145 754.72C51.2545 753.88 51.8679 753.233 52.6545 752.78C53.4545 752.313 54.3812 752.08 55.4345 752.08C56.4879 752.08 57.4079 752.313 58.1945 752.78C58.9812 753.233 59.5879 753.88 60.0145 754.72C60.4545 755.547 60.6745 756.527 60.6745 757.66C60.6745 758.78 60.4545 759.76 60.0145 760.6C59.5879 761.44 58.9812 762.093 58.1945 762.56C57.4079 763.013 56.4879 763.24 55.4345 763.24ZM55.4345 761.16C56.2612 761.16 56.8945 760.853 57.3345 760.24C57.7879 759.627 58.0145 758.767 58.0145 757.66C58.0145 756.567 57.7879 755.713 57.3345 755.1C56.8945 754.473 56.2612 754.16 55.4345 754.16C54.6079 754.16 53.9679 754.473 53.5145 755.1C53.0612 755.713 52.8345 756.567 52.8345 757.66C52.8345 758.767 53.0612 759.627 53.5145 760.24C53.9679 760.853 54.6079 761.16 55.4345 761.16ZM65.1989 763L61.2989 752.32H63.9989L66.7189 760.42L69.4389 752.32H72.1389L68.2389 763H65.1989ZM76.5117 763.24C75.3917 763.24 74.4917 762.987 73.8117 762.48C73.1317 761.96 72.7917 761.24 72.7917 760.32C72.7917 759.4 73.0784 758.68 73.6517 758.16C74.2251 757.64 75.0984 757.267 76.2717 757.04L79.8117 756.34C79.8117 755.58 79.6384 755.013 79.2917 754.64C78.9451 754.253 78.4317 754.06 77.7517 754.06C77.1384 754.06 76.6517 754.207 76.2917 754.5C75.9451 754.78 75.7051 755.187 75.5717 755.72L72.9717 755.6C73.1851 754.467 73.7051 753.6 74.5317 753C75.3584 752.387 76.4317 752.08 77.7517 752.08C79.2717 752.08 80.4184 752.467 81.1917 753.24C81.9784 754 82.3717 755.093 82.3717 756.52V760.4C82.3717 760.68 82.4184 760.873 82.5117 760.98C82.6184 761.087 82.7717 761.14 82.9717 761.14H83.3117V763C83.2317 763.027 83.0984 763.047 82.9117 763.06C82.7384 763.073 82.5584 763.08 82.3717 763.08C81.9317 763.08 81.5384 763.013 81.1917 762.88C80.8451 762.733 80.5784 762.487 80.3917 762.14C80.2051 761.78 80.1117 761.293 80.1117 760.68L80.3317 760.84C80.2251 761.307 79.9917 761.727 79.6317 762.1C79.2851 762.46 78.8451 762.74 78.3117 762.94C77.7784 763.14 77.1784 763.24 76.5117 763.24ZM77.0317 761.38C77.6051 761.38 78.0984 761.267 78.5117 761.04C78.9251 760.813 79.2451 760.5 79.4717 760.1C79.6984 759.7 79.8117 759.227 79.8117 758.68V758.08L77.0517 758.64C76.4784 758.76 76.0651 758.94 75.8117 759.18C75.5717 759.407 75.4517 759.707 75.4517 760.08C75.4517 760.493 75.5851 760.813 75.8517 761.04C76.1317 761.267 76.5251 761.38 77.0317 761.38ZM88.7073 763C87.6407 763 86.854 762.753 86.3473 762.26C85.854 761.767 85.6073 760.993 85.6073 759.94V749.82H88.1673V759.7C88.1673 760.193 88.274 760.54 88.4873 760.74C88.7007 760.927 89.034 761.02 89.4873 761.02H90.9873V763H88.7073ZM83.9273 754.3V752.32H90.9873V754.3H83.9273ZM92.8648 763V752.32H95.4248V763H92.8648ZM92.8248 750.9V748.62H95.4848V750.9H92.8248ZM102.681 763.24C101.627 763.24 100.701 763.013 99.9006 762.56C99.114 762.093 98.5006 761.44 98.0606 760.6C97.634 759.76 97.4206 758.78 97.4206 757.66C97.4206 756.527 97.634 755.547 98.0606 754.72C98.5006 753.88 99.114 753.233 99.9006 752.78C100.701 752.313 101.627 752.08 102.681 752.08C103.734 752.08 104.654 752.313 105.441 752.78C106.227 753.233 106.834 753.88 107.261 754.72C107.701 755.547 107.921 756.527 107.921 757.66C107.921 758.78 107.701 759.76 107.261 760.6C106.834 761.44 106.227 762.093 105.441 762.56C104.654 763.013 103.734 763.24 102.681 763.24ZM102.681 761.16C103.507 761.16 104.141 760.853 104.581 760.24C105.034 759.627 105.261 758.767 105.261 757.66C105.261 756.567 105.034 755.713 104.581 755.1C104.141 754.473 103.507 754.16 102.681 754.16C101.854 754.16 101.214 754.473 100.761 755.1C100.307 755.713 100.081 756.567 100.081 757.66C100.081 758.767 100.307 759.627 100.761 760.24C101.214 760.853 101.854 761.16 102.681 761.16ZM109.896 763V752.32H112.216L112.316 755.32L112.016 755.2C112.123 754.453 112.343 753.853 112.676 753.4C113.009 752.947 113.416 752.613 113.896 752.4C114.376 752.187 114.903 752.08 115.476 752.08C116.263 752.08 116.923 752.253 117.456 752.6C118.003 752.947 118.416 753.427 118.696 754.04C118.976 754.64 119.116 755.34 119.116 756.14V763H116.556V756.96C116.556 756.36 116.496 755.853 116.376 755.44C116.256 755.027 116.056 754.713 115.776 754.5C115.509 754.273 115.149 754.16 114.696 754.16C114.016 754.16 113.469 754.4 113.056 754.88C112.656 755.36 112.456 756.053 112.456 756.96V763H109.896ZM129.554 763L125.654 752.32H128.354L131.074 760.42L133.794 752.32H136.494L132.594 763H129.554ZM142.088 763.24C141.034 763.24 140.148 763.087 139.428 762.78C138.721 762.473 138.174 762.047 137.788 761.5C137.401 760.953 137.181 760.333 137.128 759.64L139.748 759.52C139.841 760.08 140.074 760.513 140.448 760.82C140.821 761.127 141.374 761.28 142.108 761.28C142.708 761.28 143.174 761.187 143.508 761C143.854 760.8 144.028 760.493 144.028 760.08C144.028 759.84 143.968 759.64 143.848 759.48C143.728 759.32 143.501 759.18 143.168 759.06C142.834 758.94 142.341 758.82 141.688 758.7C140.594 758.513 139.734 758.287 139.108 758.02C138.481 757.74 138.034 757.393 137.768 756.98C137.514 756.567 137.388 756.053 137.388 755.44C137.388 754.44 137.768 753.633 138.528 753.02C139.301 752.393 140.428 752.08 141.908 752.08C142.868 752.08 143.674 752.24 144.328 752.56C144.981 752.867 145.488 753.293 145.848 753.84C146.221 754.373 146.454 754.987 146.548 755.68L143.968 755.8C143.901 755.44 143.781 755.127 143.608 754.86C143.434 754.593 143.201 754.393 142.908 754.26C142.614 754.113 142.268 754.04 141.868 754.04C141.268 754.04 140.814 754.16 140.508 754.4C140.201 754.64 140.048 754.96 140.048 755.36C140.048 755.64 140.114 755.873 140.248 756.06C140.394 756.247 140.628 756.4 140.948 756.52C141.268 756.627 141.694 756.727 142.228 756.82C143.348 756.993 144.228 757.22 144.868 757.5C145.521 757.767 145.981 758.113 146.248 758.54C146.528 758.953 146.668 759.453 146.668 760.04C146.668 760.72 146.474 761.3 146.088 761.78C145.714 762.26 145.181 762.627 144.488 762.88C143.808 763.12 143.008 763.24 142.088 763.24ZM153.788 763V748.8H156.388V763H153.788ZM159.545 763V752.32H161.865L161.945 754.94L161.705 754.82C161.825 754.247 162.031 753.76 162.325 753.36C162.631 752.947 162.998 752.633 163.425 752.42C163.865 752.193 164.345 752.08 164.865 752.08C165.771 752.08 166.505 752.34 167.065 752.86C167.625 753.367 167.978 754.067 168.125 754.96H167.785C167.905 754.333 168.111 753.813 168.405 753.4C168.698 752.973 169.065 752.647 169.505 752.42C169.958 752.193 170.465 752.08 171.025 752.08C171.758 752.08 172.391 752.24 172.925 752.56C173.458 752.867 173.865 753.32 174.145 753.92C174.438 754.52 174.585 755.26 174.585 756.14V763H172.025V756.8C172.025 755.92 171.871 755.26 171.565 754.82C171.271 754.38 170.818 754.16 170.205 754.16C169.791 754.16 169.438 754.267 169.145 754.48C168.851 754.693 168.625 755.007 168.465 755.42C168.318 755.82 168.245 756.307 168.245 756.88V763H165.865V756.88C165.865 756 165.731 755.327 165.465 754.86C165.198 754.393 164.738 754.16 164.085 754.16C163.671 754.16 163.318 754.267 163.025 754.48C162.745 754.693 162.518 755.007 162.345 755.42C162.185 755.82 162.105 756.307 162.105 756.88V763H159.545ZM177.201 763V752.32H179.761V763H177.201ZM177.161 750.9V748.62H179.821V750.9H177.161ZM186.188 763C185.121 763 184.334 762.753 183.828 762.26C183.334 761.767 183.088 760.993 183.088 759.94V749.82H185.648V759.7C185.648 760.193 185.754 760.54 185.968 760.74C186.181 760.927 186.514 761.02 186.968 761.02H188.468V763H186.188ZM181.408 754.3V752.32H188.468V754.3H181.408ZM193.387 763.24C192.267 763.24 191.367 762.987 190.687 762.48C190.007 761.96 189.667 761.24 189.667 760.32C189.667 759.4 189.953 758.68 190.527 758.16C191.1 757.64 191.973 757.267 193.147 757.04L196.687 756.34C196.687 755.58 196.513 755.013 196.167 754.64C195.82 754.253 195.307 754.06 194.627 754.06C194.013 754.06 193.527 754.207 193.167 754.5C192.82 754.78 192.58 755.187 192.447 755.72L189.847 755.6C190.06 754.467 190.58 753.6 191.407 753C192.233 752.387 193.307 752.08 194.627 752.08C196.147 752.08 197.293 752.467 198.067 753.24C198.853 754 199.247 755.093 199.247 756.52V760.4C199.247 760.68 199.293 760.873 199.387 760.98C199.493 761.087 199.647 761.14 199.847 761.14H200.187V763C200.107 763.027 199.973 763.047 199.787 763.06C199.613 763.073 199.433 763.08 199.247 763.08C198.807 763.08 198.413 763.013 198.067 762.88C197.72 762.733 197.453 762.487 197.267 762.14C197.08 761.78 196.987 761.293 196.987 760.68L197.207 760.84C197.1 761.307 196.867 761.727 196.507 762.1C196.16 762.46 195.72 762.74 195.187 762.94C194.653 763.14 194.053 763.24 193.387 763.24ZM193.907 761.38C194.48 761.38 194.973 761.267 195.387 761.04C195.8 760.813 196.12 760.5 196.347 760.1C196.573 759.7 196.687 759.227 196.687 758.68V758.08L193.927 758.64C193.353 758.76 192.94 758.94 192.687 759.18C192.447 759.407 192.327 759.707 192.327 760.08C192.327 760.493 192.46 760.813 192.727 761.04C193.007 761.267 193.4 761.38 193.907 761.38ZM205.582 763C204.516 763 203.729 762.753 203.222 762.26C202.729 761.767 202.482 760.993 202.482 759.94V749.82H205.042V759.7C205.042 760.193 205.149 760.54 205.362 760.74C205.576 760.927 205.909 761.02 206.362 761.02H207.862V763H205.582ZM200.802 754.3V752.32H207.862V754.3H200.802ZM209.74 763V752.32H212.3V763H209.74ZM209.7 750.9V748.62H212.36V750.9H209.7ZM219.556 763.24C218.502 763.24 217.576 763.013 216.776 762.56C215.989 762.093 215.376 761.44 214.936 760.6C214.509 759.76 214.296 758.78 214.296 757.66C214.296 756.527 214.509 755.547 214.936 754.72C215.376 753.88 215.989 753.233 216.776 752.78C217.576 752.313 218.502 752.08 219.556 752.08C220.609 752.08 221.529 752.313 222.316 752.78C223.102 753.233 223.709 753.88 224.136 754.72C224.576 755.547 224.796 756.527 224.796 757.66C224.796 758.78 224.576 759.76 224.136 760.6C223.709 761.44 223.102 762.093 222.316 762.56C221.529 763.013 220.609 763.24 219.556 763.24ZM219.556 761.16C220.382 761.16 221.016 760.853 221.456 760.24C221.909 759.627 222.136 758.767 222.136 757.66C222.136 756.567 221.909 755.713 221.456 755.1C221.016 754.473 220.382 754.16 219.556 754.16C218.729 754.16 218.089 754.473 217.636 755.1C217.182 755.713 216.956 756.567 216.956 757.66C216.956 758.767 217.182 759.627 217.636 760.24C218.089 760.853 218.729 761.16 219.556 761.16ZM226.771 763V752.32H229.091L229.191 755.32L228.891 755.2C228.998 754.453 229.218 753.853 229.551 753.4C229.884 752.947 230.291 752.613 230.771 752.4C231.251 752.187 231.778 752.08 232.351 752.08C233.138 752.08 233.798 752.253 234.331 752.6C234.878 752.947 235.291 753.427 235.571 754.04C235.851 754.64 235.991 755.34 235.991 756.14V763H233.431V756.96C233.431 756.36 233.371 755.853 233.251 755.44C233.131 755.027 232.931 754.713 232.651 754.5C232.384 754.273 232.024 754.16 231.571 754.16C230.891 754.16 230.344 754.4 229.931 754.88C229.531 755.36 229.331 756.053 229.331 756.96V763H226.771ZM238.983 763V760.2H241.903V763H238.983ZM238.983 755.62V752.82H241.903V755.62H238.983ZM249.823 763V748.8H255.143C256.876 748.8 258.189 749.107 259.083 749.72C259.989 750.333 260.443 751.307 260.443 752.64C260.443 753.24 260.316 753.767 260.063 754.22C259.823 754.66 259.463 755.007 258.983 755.26C258.516 755.513 257.949 755.653 257.283 755.68L257.263 755.64C258.476 755.68 259.409 756.013 260.063 756.64C260.716 757.253 261.043 758.073 261.043 759.1C261.043 760.407 260.589 761.387 259.683 762.04C258.789 762.68 257.516 763 255.863 763H249.823ZM252.423 760.8H255.743C256.556 760.8 257.196 760.633 257.663 760.3C258.143 759.967 258.383 759.473 258.383 758.82C258.383 758.167 258.149 757.667 257.683 757.32C257.216 756.973 256.569 756.8 255.743 756.8H252.423V760.8ZM252.423 754.76H255.063C255.916 754.76 256.583 754.6 257.063 754.28C257.543 753.96 257.783 753.493 257.783 752.88C257.783 752.24 257.549 751.767 257.083 751.46C256.616 751.153 255.943 751 255.063 751H252.423V754.76ZM266.834 763.24C265.754 763.24 264.894 762.887 264.254 762.18C263.627 761.46 263.314 760.467 263.314 759.2V752.32H265.874V758.56C265.874 759.453 266.021 760.113 266.314 760.54C266.621 760.953 267.081 761.16 267.694 761.16C268.387 761.16 268.921 760.933 269.294 760.48C269.681 760.013 269.874 759.34 269.874 758.46V752.32H272.434V763H270.094L270.034 760.06L270.354 760.16C270.194 761.173 269.814 761.94 269.214 762.46C268.614 762.98 267.821 763.24 266.834 763.24ZM275.052 763V752.32H277.612V763H275.052ZM275.012 750.9V748.62H277.672V750.9H275.012ZM282.847 763C282.073 763 281.453 762.8 280.987 762.4C280.52 762 280.287 761.36 280.287 760.48V748.8H282.847V760.22C282.847 760.487 282.913 760.687 283.047 760.82C283.193 760.953 283.393 761.02 283.647 761.02H284.427V763H282.847ZM289.868 763.24C288.961 763.24 288.175 763.013 287.508 762.56C286.855 762.107 286.348 761.46 285.988 760.62C285.628 759.78 285.448 758.793 285.448 757.66C285.448 756.527 285.628 755.54 285.988 754.7C286.348 753.86 286.861 753.213 287.528 752.76C288.195 752.307 288.975 752.08 289.868 752.08C290.615 752.08 291.268 752.233 291.828 752.54C292.401 752.847 292.835 753.28 293.128 753.84V748.8H295.688V763H293.248L293.188 761.42C292.895 761.993 292.455 762.44 291.868 762.76C291.281 763.08 290.615 763.24 289.868 763.24ZM290.648 761.16C291.181 761.16 291.628 761.027 291.988 760.76C292.361 760.493 292.641 760.1 292.828 759.58C293.028 759.047 293.128 758.407 293.128 757.66C293.128 756.9 293.028 756.26 292.828 755.74C292.641 755.22 292.361 754.827 291.988 754.56C291.628 754.293 291.181 754.16 290.648 754.16C289.875 754.16 289.255 754.473 288.788 755.1C288.335 755.713 288.108 756.567 288.108 757.66C288.108 758.727 288.335 759.58 288.788 760.22C289.255 760.847 289.875 761.16 290.648 761.16ZM298.177 763V752.32H300.737V763H298.177ZM298.137 750.9V748.62H300.797V750.9H298.137ZM303.705 763V752.32H306.025L306.125 755.32L305.825 755.2C305.931 754.453 306.151 753.853 306.485 753.4C306.818 752.947 307.225 752.613 307.705 752.4C308.185 752.187 308.711 752.08 309.285 752.08C310.071 752.08 310.731 752.253 311.265 752.6C311.811 752.947 312.225 753.427 312.505 754.04C312.785 754.64 312.925 755.34 312.925 756.14V763H310.365V756.96C310.365 756.36 310.305 755.853 310.185 755.44C310.065 755.027 309.865 754.713 309.585 754.5C309.318 754.273 308.958 754.16 308.505 754.16C307.825 754.16 307.278 754.4 306.865 754.88C306.465 755.36 306.265 756.053 306.265 756.96V763H303.705ZM320.023 766.24C319.089 766.24 318.289 766.113 317.623 765.86C316.956 765.607 316.416 765.247 316.003 764.78C315.603 764.327 315.323 763.8 315.163 763.2L317.803 763.02C317.936 763.42 318.163 763.733 318.483 763.96C318.816 764.187 319.329 764.3 320.023 764.3C320.809 764.3 321.416 764.12 321.843 763.76C322.269 763.413 322.483 762.867 322.483 762.12V760.76C322.229 761.28 321.823 761.7 321.263 762.02C320.703 762.327 320.076 762.48 319.383 762.48C318.503 762.48 317.716 762.267 317.023 761.84C316.343 761.4 315.809 760.793 315.423 760.02C315.036 759.233 314.843 758.327 314.843 757.3C314.843 756.273 315.029 755.373 315.403 754.6C315.789 753.813 316.323 753.2 317.002 752.76C317.683 752.307 318.463 752.08 319.342 752.08C320.116 752.08 320.783 752.253 321.343 752.6C321.903 752.947 322.309 753.407 322.563 753.98V752.32H325.063V762.06C325.063 762.967 324.849 763.733 324.423 764.36C324.009 764.987 323.423 765.453 322.663 765.76C321.916 766.08 321.036 766.24 320.023 766.24ZM319.983 760.48C320.743 760.48 321.349 760.2 321.803 759.64C322.256 759.067 322.489 758.28 322.503 757.28C322.516 756.613 322.416 756.047 322.203 755.58C322.003 755.1 321.709 754.733 321.323 754.48C320.949 754.213 320.503 754.08 319.983 754.08C319.196 754.08 318.583 754.373 318.143 754.96C317.716 755.533 317.503 756.307 317.503 757.28C317.503 758.253 317.723 759.033 318.163 759.62C318.616 760.193 319.223 760.48 319.983 760.48ZM335.691 763.24C334.571 763.24 333.671 762.987 332.991 762.48C332.311 761.96 331.971 761.24 331.971 760.32C331.971 759.4 332.258 758.68 332.831 758.16C333.405 757.64 334.278 757.267 335.451 757.04L338.991 756.34C338.991 755.58 338.818 755.013 338.471 754.64C338.125 754.253 337.611 754.06 336.931 754.06C336.318 754.06 335.831 754.207 335.471 754.5C335.125 754.78 334.885 755.187 334.751 755.72L332.151 755.6C332.365 754.467 332.885 753.6 333.711 753C334.538 752.387 335.611 752.08 336.931 752.08C338.451 752.08 339.598 752.467 340.371 753.24C341.158 754 341.551 755.093 341.551 756.52V760.4C341.551 760.68 341.598 760.873 341.691 760.98C341.798 761.087 341.951 761.14 342.151 761.14H342.491V763C342.411 763.027 342.278 763.047 342.091 763.06C341.918 763.073 341.738 763.08 341.551 763.08C341.111 763.08 340.718 763.013 340.371 762.88C340.025 762.733 339.758 762.487 339.571 762.14C339.385 761.78 339.291 761.293 339.291 760.68L339.511 760.84C339.405 761.307 339.171 761.727 338.811 762.1C338.465 762.46 338.025 762.74 337.491 762.94C336.958 763.14 336.358 763.24 335.691 763.24ZM336.211 761.38C336.785 761.38 337.278 761.267 337.691 761.04C338.105 760.813 338.425 760.5 338.651 760.1C338.878 759.7 338.991 759.227 338.991 758.68V758.08L336.231 758.64C335.658 758.76 335.245 758.94 334.991 759.18C334.751 759.407 334.631 759.707 334.631 760.08C334.631 760.493 334.765 760.813 335.031 761.04C335.311 761.267 335.705 761.38 336.211 761.38ZM27.44 787.32C26.1467 787.32 25.0067 787.027 24.02 786.44C23.0333 785.84 22.26 784.993 21.7 783.9C21.14 782.793 20.86 781.467 20.86 779.92C20.86 778.4 21.1333 777.087 21.68 775.98C22.2267 774.86 22.9933 774 23.98 773.4C24.9667 772.787 26.1267 772.48 27.46 772.48C29.2733 772.48 30.68 772.933 31.68 773.84C32.68 774.733 33.3333 775.987 33.64 777.6L30.92 777.74C30.7467 776.807 30.3733 776.073 29.8 775.54C29.2267 775.007 28.4467 774.74 27.46 774.74C26.66 774.74 25.9667 774.953 25.38 775.38C24.7933 775.807 24.34 776.407 24.02 777.18C23.7 777.953 23.54 778.867 23.54 779.92C23.54 780.987 23.7 781.907 24.02 782.68C24.3533 783.44 24.8133 784.027 25.4 784.44C25.9867 784.853 26.6667 785.06 27.44 785.06C28.4933 785.06 29.3067 784.773 29.88 784.2C30.4667 783.613 30.84 782.813 31 781.8L33.72 781.94C33.5333 783.047 33.1733 784.007 32.64 784.82C32.1067 785.62 31.4 786.24 30.52 786.68C29.6533 787.107 28.6267 787.32 27.44 787.32ZM39.1192 787.24C38.0392 787.24 37.1792 786.887 36.5392 786.18C35.9126 785.46 35.5992 784.467 35.5992 783.2V776.32H38.1592V782.56C38.1592 783.453 38.3059 784.113 38.5992 784.54C38.9059 784.953 39.3659 785.16 39.9792 785.16C40.6726 785.16 41.2059 784.933 41.5792 784.48C41.9659 784.013 42.1592 783.34 42.1592 782.46V776.32H44.7192V787H42.3792L42.3192 784.06L42.6392 784.16C42.4792 785.173 42.0992 785.94 41.4992 786.46C40.8992 786.98 40.1059 787.24 39.1192 787.24ZM50.0928 787C49.3195 787 48.6995 786.8 48.2328 786.4C47.7661 786 47.5328 785.36 47.5328 784.48V772.8H50.0928V784.22C50.0928 784.487 50.1595 784.687 50.2928 784.82C50.4395 784.953 50.6395 785.02 50.8928 785.02H51.6728V787H50.0928ZM57.1644 787C56.0977 787 55.311 786.753 54.8044 786.26C54.311 785.767 54.0644 784.993 54.0644 783.94V773.82H56.6244V783.7C56.6244 784.193 56.731 784.54 56.9444 784.74C57.1577 784.927 57.491 785.02 57.9444 785.02H59.4444V787H57.1644ZM52.3844 778.3V776.32H59.4444V778.3H52.3844ZM64.8809 787.24C63.8009 787.24 62.9409 786.887 62.3009 786.18C61.6743 785.46 61.3609 784.467 61.3609 783.2V776.32H63.9209V782.56C63.9209 783.453 64.0676 784.113 64.3609 784.54C64.6676 784.953 65.1276 785.16 65.7409 785.16C66.4343 785.16 66.9676 784.933 67.3409 784.48C67.7276 784.013 67.9209 783.34 67.9209 782.46V776.32H70.4809V787H68.1409L68.0809 784.06L68.4009 784.16C68.2409 785.173 67.8609 785.94 67.2609 786.46C66.6609 786.98 65.8676 787.24 64.8809 787.24ZM73.2945 787V776.32H75.6945L75.7945 779.28L75.5745 779.24C75.7345 778.213 76.0345 777.473 76.4745 777.02C76.9279 776.553 77.5412 776.32 78.3145 776.32H79.2945V778.52H78.2945C77.7479 778.52 77.2945 778.6 76.9345 778.76C76.5745 778.92 76.3012 779.173 76.1145 779.52C75.9412 779.853 75.8545 780.293 75.8545 780.84V787H73.2945ZM85.2973 787.24C84.2307 787.24 83.304 787.013 82.5173 786.56C81.7307 786.093 81.124 785.44 80.6973 784.6C80.2707 783.76 80.0573 782.78 80.0573 781.66C80.0573 780.54 80.2707 779.567 80.6973 778.74C81.124 777.9 81.724 777.247 82.4973 776.78C83.284 776.313 84.1973 776.08 85.2373 776.08C86.2507 776.08 87.1373 776.307 87.8973 776.76C88.6707 777.213 89.264 777.867 89.6773 778.72C90.0907 779.573 90.2973 780.6 90.2973 781.8V782.38H82.7173C82.7707 783.313 83.024 784.02 83.4773 784.5C83.944 784.967 84.5573 785.2 85.3173 785.2C85.8907 785.2 86.364 785.073 86.7373 784.82C87.124 784.553 87.3907 784.187 87.5373 783.72L90.1573 783.88C89.864 784.92 89.284 785.74 88.4173 786.34C87.564 786.94 86.524 787.24 85.2973 787.24ZM82.7173 780.66H87.6573C87.604 779.793 87.3573 779.153 86.9173 778.74C86.4773 778.313 85.9173 778.1 85.2373 778.1C84.5573 778.1 83.9907 778.32 83.5373 778.76C83.0973 779.2 82.824 779.833 82.7173 780.66ZM101.86 787.24C100.807 787.24 99.8803 787.013 99.0803 786.56C98.2936 786.093 97.6803 785.44 97.2403 784.6C96.8136 783.76 96.6003 782.78 96.6003 781.66C96.6003 780.527 96.8136 779.547 97.2403 778.72C97.6803 777.88 98.2936 777.233 99.0803 776.78C99.8803 776.313 100.807 776.08 101.86 776.08C102.914 776.08 103.834 776.313 104.62 776.78C105.407 777.233 106.014 777.88 106.44 778.72C106.88 779.547 107.1 780.527 107.1 781.66C107.1 782.78 106.88 783.76 106.44 784.6C106.014 785.44 105.407 786.093 104.62 786.56C103.834 787.013 102.914 787.24 101.86 787.24ZM101.86 785.16C102.687 785.16 103.32 784.853 103.76 784.24C104.214 783.627 104.44 782.767 104.44 781.66C104.44 780.567 104.214 779.713 103.76 779.1C103.32 778.473 102.687 778.16 101.86 778.16C101.034 778.16 100.394 778.473 99.9403 779.1C99.487 779.713 99.2603 780.567 99.2603 781.66C99.2603 782.767 99.487 783.627 99.9403 784.24C100.394 784.853 101.034 785.16 101.86 785.16ZM109.786 787V775.9C109.786 774.94 110.052 774.187 110.586 773.64C111.132 773.08 111.966 772.8 113.086 772.8H115.166V774.78H113.566C113.152 774.78 112.846 774.887 112.646 775.1C112.459 775.313 112.366 775.627 112.366 776.04V787H109.786ZM108.266 778.58V776.6H115.026V778.58H108.266ZM122.166 787V772.8H125.206L131.326 783.48V772.8H133.926V787H130.806L124.766 776.62V787H122.166ZM141.352 787.24C140.285 787.24 139.359 787.013 138.572 786.56C137.785 786.093 137.179 785.44 136.752 784.6C136.325 783.76 136.112 782.78 136.112 781.66C136.112 780.54 136.325 779.567 136.752 778.74C137.179 777.9 137.779 777.247 138.552 776.78C139.339 776.313 140.252 776.08 141.292 776.08C142.305 776.08 143.192 776.307 143.952 776.76C144.725 777.213 145.319 777.867 145.732 778.72C146.145 779.573 146.352 780.6 146.352 781.8V782.38H138.772C138.825 783.313 139.079 784.02 139.532 784.5C139.999 784.967 140.612 785.2 141.372 785.2C141.945 785.2 142.419 785.073 142.792 784.82C143.179 784.553 143.445 784.187 143.592 783.72L146.212 783.88C145.919 784.92 145.339 785.74 144.472 786.34C143.619 786.94 142.579 787.24 141.352 787.24ZM138.772 780.66H143.712C143.659 779.793 143.412 779.153 142.972 778.74C142.532 778.313 141.972 778.1 141.292 778.1C140.612 778.1 140.045 778.32 139.592 778.76C139.152 779.2 138.879 779.833 138.772 780.66ZM150.222 787L147.002 776.32H149.622L151.702 784.1L153.842 776.32H156.082L158.242 784.1L160.322 776.32H162.942L159.722 787H157.082L154.962 779.84L152.862 787H150.222Z" fill="white"/>
<path d="M28.13 732L31.64 710.7H35.12L31.58 732H28.13ZM19.97 726.75L20.42 723.69H35.36L34.91 726.75H19.97ZM21.38 732L24.86 710.7H28.34L24.83 732H21.38ZM21.11 719.19L21.56 716.1H36.5L36.05 719.19H21.11ZM42.2527 732V717.39H37.6927V714.42H39.5227C40.3827 714.42 41.0727 714.31 41.5927 714.09C42.1127 713.87 42.4827 713.49 42.7027 712.95C42.9427 712.39 43.0627 711.64 43.0627 710.7H46.1527V732H42.2527Z" fill="#A1A1AA"/>
<path d="M37.872 1199.22C37.0507 1199.22 36.3413 1199.08 35.744 1198.79C35.1467 1198.5 34.6753 1198.1 34.33 1197.59C33.994 1197.06 33.798 1196.46 33.742 1195.77L35.59 1195.65C35.646 1196.08 35.7673 1196.45 35.954 1196.75C36.15 1197.04 36.4067 1197.27 36.724 1197.43C37.0507 1197.58 37.4427 1197.66 37.9 1197.66C38.292 1197.66 38.6233 1197.61 38.894 1197.52C39.174 1197.41 39.384 1197.27 39.524 1197.08C39.6733 1196.89 39.748 1196.65 39.748 1196.37C39.748 1196.12 39.6873 1195.89 39.566 1195.7C39.4447 1195.49 39.2113 1195.31 38.866 1195.15C38.5207 1194.98 38.0073 1194.82 37.326 1194.66C36.5047 1194.47 35.8467 1194.26 35.352 1194.03C34.8573 1193.79 34.498 1193.49 34.274 1193.13C34.05 1192.77 33.938 1192.32 33.938 1191.78C33.938 1191.2 34.0827 1190.69 34.372 1190.25C34.6613 1189.8 35.072 1189.46 35.604 1189.21C36.136 1188.96 36.7753 1188.84 37.522 1188.84C38.3153 1188.84 38.9873 1188.98 39.538 1189.27C40.0887 1189.55 40.5227 1189.94 40.84 1190.43C41.1573 1190.93 41.3533 1191.5 41.428 1192.14L39.594 1192.22C39.5473 1191.86 39.4353 1191.54 39.258 1191.27C39.09 1191 38.8567 1190.79 38.558 1190.64C38.2687 1190.48 37.914 1190.4 37.494 1190.4C36.9713 1190.4 36.556 1190.53 36.248 1190.77C35.9493 1191 35.8 1191.31 35.8 1191.71C35.8 1191.98 35.8607 1192.2 35.982 1192.38C36.1127 1192.56 36.3413 1192.71 36.668 1192.84C36.9947 1192.96 37.452 1193.09 38.04 1193.23C38.9267 1193.42 39.6313 1193.66 40.154 1193.95C40.6767 1194.24 41.05 1194.57 41.274 1194.95C41.498 1195.34 41.61 1195.78 41.61 1196.27C41.61 1196.88 41.456 1197.4 41.148 1197.85C40.84 1198.29 40.406 1198.63 39.846 1198.87C39.286 1199.11 38.628 1199.22 37.872 1199.22ZM46.0131 1199C45.2664 1199 44.7158 1198.83 44.3611 1198.48C44.0158 1198.14 43.8431 1197.6 43.8431 1196.86V1189.77H45.6351V1196.69C45.6351 1197.04 45.7098 1197.28 45.8591 1197.42C46.0084 1197.55 46.2418 1197.61 46.5591 1197.61H47.6091V1199H46.0131ZM42.6671 1192.91V1191.52H47.6091V1192.91H42.6671ZM49.0601 1199V1191.52H50.7401L50.8101 1193.6L50.6561 1193.57C50.7681 1192.85 50.9781 1192.33 51.2861 1192.01C51.6034 1191.69 52.0327 1191.52 52.5741 1191.52H53.2601V1193.06H52.5601C52.1774 1193.06 51.8601 1193.12 51.6081 1193.23C51.3561 1193.34 51.1647 1193.52 51.0341 1193.76C50.9127 1194 50.8521 1194.31 50.8521 1194.69V1199H49.0601ZM57.476 1199.17C56.7387 1199.17 56.09 1199.01 55.53 1198.69C54.9794 1198.37 54.55 1197.91 54.242 1197.32C53.9434 1196.73 53.794 1196.05 53.794 1195.26C53.794 1194.47 53.9434 1193.78 54.242 1193.2C54.55 1192.62 54.9794 1192.16 55.53 1191.85C56.09 1191.52 56.7387 1191.36 57.476 1191.36C58.2134 1191.36 58.8574 1191.52 59.408 1191.85C59.9587 1192.16 60.3834 1192.62 60.682 1193.2C60.99 1193.78 61.144 1194.47 61.144 1195.26C61.144 1196.05 60.99 1196.73 60.682 1197.32C60.3834 1197.91 59.9587 1198.37 59.408 1198.69C58.8574 1199.01 58.2134 1199.17 57.476 1199.17ZM57.476 1197.71C58.0547 1197.71 58.498 1197.5 58.806 1197.07C59.1234 1196.64 59.282 1196.04 59.282 1195.26C59.282 1194.5 59.1234 1193.9 58.806 1193.47C58.498 1193.03 58.0547 1192.81 57.476 1192.81C56.8974 1192.81 56.4494 1193.03 56.132 1193.47C55.8147 1193.9 55.656 1194.5 55.656 1195.26C55.656 1196.04 55.8147 1196.64 56.132 1197.07C56.4494 1197.5 56.8974 1197.71 57.476 1197.71ZM62.5269 1199V1191.52H64.1509L64.2209 1193.62L64.0109 1193.54C64.0855 1193.02 64.2395 1192.6 64.4729 1192.28C64.7062 1191.96 64.9909 1191.73 65.3269 1191.58C65.6629 1191.43 66.0315 1191.36 66.4329 1191.36C66.9835 1191.36 67.4455 1191.48 67.8189 1191.72C68.2015 1191.96 68.4909 1192.3 68.6869 1192.73C68.8829 1193.15 68.9809 1193.64 68.9809 1194.2V1199H67.1889V1194.77C67.1889 1194.35 67.1469 1194 67.0629 1193.71C66.9789 1193.42 66.8389 1193.2 66.6429 1193.05C66.4562 1192.89 66.2042 1192.81 65.8869 1192.81C65.4109 1192.81 65.0282 1192.98 64.7389 1193.32C64.4589 1193.65 64.3189 1194.14 64.3189 1194.77V1199H62.5269ZM73.9493 1201.27C73.296 1201.27 72.736 1201.18 72.2693 1201C71.8027 1200.82 71.4247 1200.57 71.1353 1200.25C70.8553 1199.93 70.6593 1199.56 70.5473 1199.14L72.3953 1199.01C72.4887 1199.29 72.6473 1199.51 72.8713 1199.67C73.1047 1199.83 73.464 1199.91 73.9493 1199.91C74.5 1199.91 74.9247 1199.78 75.2233 1199.53C75.522 1199.29 75.6713 1198.91 75.6713 1198.38V1197.43C75.494 1197.8 75.2093 1198.09 74.8173 1198.31C74.4253 1198.53 73.9867 1198.64 73.5013 1198.64C72.8853 1198.64 72.3347 1198.49 71.8493 1198.19C71.3733 1197.88 71 1197.46 70.7293 1196.91C70.4587 1196.36 70.3233 1195.73 70.3233 1195.01C70.3233 1194.29 70.454 1193.66 70.7153 1193.12C70.986 1192.57 71.3593 1192.14 71.8353 1191.83C72.3113 1191.51 72.8573 1191.36 73.4733 1191.36C74.0147 1191.36 74.4813 1191.48 74.8733 1191.72C75.2653 1191.96 75.55 1192.28 75.7273 1192.69V1191.52H77.4773V1198.34C77.4773 1198.98 77.328 1199.51 77.0293 1199.95C76.74 1200.39 76.3293 1200.72 75.7973 1200.93C75.2747 1201.16 74.6587 1201.27 73.9493 1201.27ZM73.9213 1197.24C74.4533 1197.24 74.878 1197.04 75.1953 1196.65C75.5127 1196.25 75.676 1195.7 75.6853 1195C75.6947 1194.53 75.6247 1194.13 75.4753 1193.81C75.3353 1193.47 75.13 1193.21 74.8593 1193.04C74.598 1192.85 74.2853 1192.76 73.9213 1192.76C73.3707 1192.76 72.9413 1192.96 72.6333 1193.37C72.3347 1193.77 72.1853 1194.31 72.1853 1195C72.1853 1195.68 72.3393 1196.22 72.6473 1196.63C72.9647 1197.04 73.3893 1197.24 73.9213 1197.24ZM85.7856 1199.17C85.0482 1199.17 84.4276 1199.06 83.9236 1198.85C83.4289 1198.63 83.0462 1198.33 82.7756 1197.95C82.5049 1197.57 82.3509 1197.13 82.3136 1196.65L84.1476 1196.56C84.2129 1196.96 84.3762 1197.26 84.6376 1197.47C84.8989 1197.69 85.2862 1197.8 85.7996 1197.8C86.2196 1197.8 86.5462 1197.73 86.7796 1197.6C87.0222 1197.46 87.1436 1197.25 87.1436 1196.96C87.1436 1196.79 87.1016 1196.65 87.0176 1196.54C86.9336 1196.42 86.7749 1196.33 86.5416 1196.24C86.3082 1196.16 85.9629 1196.07 85.5056 1195.99C84.7402 1195.86 84.1382 1195.7 83.6996 1195.51C83.2609 1195.32 82.9482 1195.08 82.7616 1194.79C82.5842 1194.5 82.4956 1194.14 82.4956 1193.71C82.4956 1193.01 82.7616 1192.44 83.2936 1192.01C83.8349 1191.58 84.6236 1191.36 85.6596 1191.36C86.3316 1191.36 86.8962 1191.47 87.3536 1191.69C87.8109 1191.91 88.1656 1192.21 88.4176 1192.59C88.6789 1192.96 88.8422 1193.39 88.9076 1193.88L87.1016 1193.96C87.0549 1193.71 86.9709 1193.49 86.8496 1193.3C86.7282 1193.12 86.5649 1192.98 86.3596 1192.88C86.1542 1192.78 85.9116 1192.73 85.6316 1192.73C85.2116 1192.73 84.8942 1192.81 84.6796 1192.98C84.4649 1193.15 84.3576 1193.37 84.3576 1193.65C84.3576 1193.85 84.4042 1194.01 84.4976 1194.14C84.6002 1194.27 84.7636 1194.38 84.9876 1194.46C85.2116 1194.54 85.5102 1194.61 85.8836 1194.67C86.6676 1194.8 87.2836 1194.95 87.7316 1195.15C88.1889 1195.34 88.5109 1195.58 88.6976 1195.88C88.8936 1196.17 88.9916 1196.52 88.9916 1196.93C88.9916 1197.4 88.8562 1197.81 88.5856 1198.15C88.3242 1198.48 87.9509 1198.74 87.4656 1198.92C86.9896 1199.08 86.4296 1199.17 85.7856 1199.17ZM93.1264 1199C92.3797 1199 91.8291 1198.83 91.4744 1198.48C91.1291 1198.14 90.9564 1197.6 90.9564 1196.86V1189.77H92.7484V1196.69C92.7484 1197.04 92.8231 1197.28 92.9724 1197.42C93.1217 1197.55 93.3551 1197.61 93.6724 1197.61H94.7224V1199H93.1264ZM89.7804 1192.91V1191.52H94.7224V1192.91H89.7804ZM98.1656 1199.17C97.3816 1199.17 96.7516 1198.99 96.2756 1198.64C95.7996 1198.27 95.5616 1197.77 95.5616 1197.12C95.5616 1196.48 95.7623 1195.98 96.1636 1195.61C96.565 1195.25 97.1763 1194.99 97.9976 1194.83L100.476 1194.34C100.476 1193.81 100.354 1193.41 100.112 1193.15C99.869 1192.88 99.5096 1192.74 99.0336 1192.74C98.6043 1192.74 98.2636 1192.84 98.0116 1193.05C97.769 1193.25 97.601 1193.53 97.5076 1193.9L95.6876 1193.82C95.837 1193.03 96.201 1192.42 96.7796 1192C97.3583 1191.57 98.1096 1191.36 99.0336 1191.36C100.098 1191.36 100.9 1191.63 101.442 1192.17C101.992 1192.7 102.268 1193.47 102.268 1194.46V1197.18C102.268 1197.38 102.3 1197.51 102.366 1197.59C102.44 1197.66 102.548 1197.7 102.688 1197.7H102.926V1199C102.87 1199.02 102.776 1199.03 102.646 1199.04C102.524 1199.05 102.398 1199.06 102.268 1199.06C101.96 1199.06 101.684 1199.01 101.442 1198.92C101.199 1198.81 101.012 1198.64 100.882 1198.4C100.751 1198.15 100.686 1197.81 100.686 1197.38L100.84 1197.49C100.765 1197.81 100.602 1198.11 100.35 1198.37C100.107 1198.62 99.799 1198.82 99.4256 1198.96C99.0523 1199.1 98.6323 1199.17 98.1656 1199.17ZM98.5296 1197.87C98.931 1197.87 99.2763 1197.79 99.5656 1197.63C99.855 1197.47 100.079 1197.25 100.238 1196.97C100.396 1196.69 100.476 1196.36 100.476 1195.98V1195.56L98.5436 1195.95C98.1423 1196.03 97.853 1196.16 97.6756 1196.33C97.5076 1196.48 97.4236 1196.69 97.4236 1196.96C97.4236 1197.25 97.517 1197.47 97.7036 1197.63C97.8996 1197.79 98.175 1197.87 98.5296 1197.87ZM106.703 1199C105.956 1199 105.405 1198.83 105.051 1198.48C104.705 1198.14 104.533 1197.6 104.533 1196.86V1189.77H106.325V1196.69C106.325 1197.04 106.399 1197.28 106.549 1197.42C106.698 1197.55 106.931 1197.61 107.249 1197.61H108.299V1199H106.703ZM103.357 1192.91V1191.52H108.299V1192.91H103.357ZM112.724 1199.17C111.977 1199.17 111.328 1199.01 110.778 1198.69C110.227 1198.37 109.802 1197.91 109.504 1197.32C109.205 1196.73 109.056 1196.05 109.056 1195.26C109.056 1194.48 109.205 1193.8 109.504 1193.22C109.802 1192.63 110.222 1192.17 110.764 1191.85C111.314 1191.52 111.954 1191.36 112.682 1191.36C113.391 1191.36 114.012 1191.51 114.544 1191.83C115.085 1192.15 115.5 1192.61 115.79 1193.2C116.079 1193.8 116.224 1194.52 116.224 1195.36V1195.77H110.918C110.955 1196.42 111.132 1196.91 111.45 1197.25C111.776 1197.58 112.206 1197.74 112.738 1197.74C113.139 1197.74 113.47 1197.65 113.732 1197.47C114.002 1197.29 114.189 1197.03 114.292 1196.7L116.126 1196.82C115.92 1197.54 115.514 1198.12 114.908 1198.54C114.31 1198.96 113.582 1199.17 112.724 1199.17ZM110.918 1194.56H114.376C114.338 1193.96 114.166 1193.51 113.858 1193.22C113.55 1192.92 113.158 1192.77 112.682 1192.77C112.206 1192.77 111.809 1192.92 111.492 1193.23C111.184 1193.54 110.992 1193.98 110.918 1194.56ZM117.625 1199V1191.52H119.249L119.305 1193.36L119.137 1193.27C119.221 1192.87 119.365 1192.53 119.571 1192.25C119.785 1191.96 120.042 1191.74 120.341 1191.59C120.649 1191.44 120.985 1191.36 121.349 1191.36C121.983 1191.36 122.497 1191.54 122.889 1191.9C123.281 1192.26 123.528 1192.75 123.631 1193.37H123.393C123.477 1192.93 123.621 1192.57 123.827 1192.28C124.032 1191.98 124.289 1191.75 124.597 1191.59C124.914 1191.44 125.269 1191.36 125.661 1191.36C126.174 1191.36 126.617 1191.47 126.991 1191.69C127.364 1191.91 127.649 1192.22 127.845 1192.64C128.05 1193.06 128.153 1193.58 128.153 1194.2V1199H126.361V1194.66C126.361 1194.04 126.253 1193.58 126.039 1193.27C125.833 1192.97 125.516 1192.81 125.087 1192.81C124.797 1192.81 124.55 1192.89 124.345 1193.04C124.139 1193.19 123.981 1193.4 123.869 1193.69C123.766 1193.97 123.715 1194.31 123.715 1194.72V1199H122.049V1194.72C122.049 1194.1 121.955 1193.63 121.769 1193.3C121.582 1192.98 121.26 1192.81 120.803 1192.81C120.513 1192.81 120.266 1192.89 120.061 1193.04C119.865 1193.19 119.706 1193.4 119.585 1193.69C119.473 1193.97 119.417 1194.31 119.417 1194.72V1199H117.625ZM133.163 1199.17C132.417 1199.17 131.768 1199.01 131.217 1198.69C130.667 1198.37 130.242 1197.91 129.943 1197.32C129.645 1196.73 129.495 1196.05 129.495 1195.26C129.495 1194.48 129.645 1193.8 129.943 1193.22C130.242 1192.63 130.662 1192.17 131.203 1191.85C131.754 1191.52 132.393 1191.36 133.121 1191.36C133.831 1191.36 134.451 1191.51 134.983 1191.83C135.525 1192.15 135.94 1192.61 136.229 1193.2C136.519 1193.8 136.663 1194.52 136.663 1195.36V1195.77H131.357C131.395 1196.42 131.572 1196.91 131.889 1197.25C132.216 1197.58 132.645 1197.74 133.177 1197.74C133.579 1197.74 133.91 1197.65 134.171 1197.47C134.442 1197.29 134.629 1197.03 134.731 1196.7L136.565 1196.82C136.36 1197.54 135.954 1198.12 135.347 1198.54C134.75 1198.96 134.022 1199.17 133.163 1199.17ZM131.357 1194.56H134.815C134.778 1193.96 134.605 1193.51 134.297 1193.22C133.989 1192.92 133.597 1192.77 133.121 1192.77C132.645 1192.77 132.249 1192.92 131.931 1193.23C131.623 1193.54 131.432 1193.98 131.357 1194.56ZM138.064 1199V1191.52H139.688L139.758 1193.62L139.548 1193.54C139.623 1193.02 139.777 1192.6 140.01 1192.28C140.243 1191.96 140.528 1191.73 140.864 1191.58C141.2 1191.43 141.569 1191.36 141.97 1191.36C142.521 1191.36 142.983 1191.48 143.356 1191.72C143.739 1191.96 144.028 1192.3 144.224 1192.73C144.42 1193.15 144.518 1193.64 144.518 1194.2V1199H142.726V1194.77C142.726 1194.35 142.684 1194 142.6 1193.71C142.516 1193.42 142.376 1193.2 142.18 1193.05C141.993 1192.89 141.741 1192.81 141.424 1192.81C140.948 1192.81 140.565 1192.98 140.276 1193.32C139.996 1193.65 139.856 1194.14 139.856 1194.77V1199H138.064ZM148.949 1199C148.202 1199 147.651 1198.83 147.297 1198.48C146.951 1198.14 146.779 1197.6 146.779 1196.86V1189.77H148.571V1196.69C148.571 1197.04 148.645 1197.28 148.795 1197.42C148.944 1197.55 149.177 1197.61 149.495 1197.61H150.545V1199H148.949ZM145.603 1192.91V1191.52H150.545V1192.91H145.603Z" fill="white"/>
<path d="M32.4146 837.48C30.7146 837.48 29.2146 837.24 27.9146 836.76C26.6346 836.28 25.6346 835.58 24.9146 834.66C24.1946 833.72 23.8346 832.56 23.8346 831.18C23.8346 829.62 24.3146 828.33 25.2746 827.31C26.2546 826.27 27.5646 825.59 29.2046 825.27L29.2646 825.9C27.9246 825.6 26.8546 825.05 26.0546 824.25C25.2746 823.43 24.8846 822.37 24.8846 821.07C24.8846 819.93 25.1746 818.92 25.7546 818.04C26.3546 817.16 27.2146 816.47 28.3346 815.97C29.4746 815.47 30.8346 815.22 32.4146 815.22C34.0146 815.22 35.3746 815.47 36.4946 815.97C37.6346 816.47 38.4946 817.16 39.0746 818.04C39.6746 818.92 39.9746 819.93 39.9746 821.07C39.9746 822.37 39.5746 823.42 38.7746 824.22C37.9946 825.02 36.9346 825.58 35.5946 825.9L35.6546 825.27C37.2946 825.59 38.5946 826.27 39.5546 827.31C40.5146 828.33 40.9946 829.62 40.9946 831.18C40.9946 832.56 40.6346 833.72 39.9146 834.66C39.2146 835.58 38.2246 836.28 36.9446 836.76C35.6646 837.24 34.1546 837.48 32.4146 837.48ZM32.4146 834.06C33.7946 834.06 34.8946 833.78 35.7146 833.22C36.5546 832.64 36.9746 831.79 36.9746 830.67C36.9746 829.61 36.5846 828.76 35.8046 828.12C35.0446 827.46 33.9146 827.13 32.4146 827.13C30.9346 827.13 29.8046 827.46 29.0246 828.12C28.2646 828.76 27.8846 829.61 27.8846 830.67C27.8846 831.79 28.2946 832.64 29.1146 833.22C29.9346 833.78 31.0346 834.06 32.4146 834.06ZM32.4146 824.22C33.5346 824.22 34.4046 823.99 35.0246 823.53C35.6646 823.05 35.9846 822.34 35.9846 821.4C35.9846 820.54 35.6846 819.86 35.0846 819.36C34.4846 818.86 33.5946 818.61 32.4146 818.61C31.2746 818.61 30.3946 818.86 29.7746 819.36C29.1746 819.86 28.8746 820.54 28.8746 821.4C28.8746 822.34 29.1846 823.05 29.8046 823.53C30.4246 823.99 31.2946 824.22 32.4146 824.22ZM53.5791 837V832.74H42.8991V829.56L52.9491 815.7H57.4791V829.35H60.0291V832.74H57.4791V837H53.5791ZM47.1591 829.35H53.5791V820.77L47.1591 829.35Z" fill="#22C55E"/>
<path d="M62.0765 839.2L67.9965 822H70.5165L64.5965 839.2H62.0765ZM75.3527 837V827.26H72.3127V825.28H73.5327C74.1061 825.28 74.5661 825.207 74.9127 825.06C75.2594 824.913 75.5061 824.66 75.6527 824.3C75.8127 823.927 75.8927 823.427 75.8927 822.8H77.9527V837H75.3527ZM86.6745 837.32C85.4745 837.32 84.4278 837.02 83.5345 836.42C82.6545 835.82 81.9745 834.967 81.4945 833.86C81.0145 832.753 80.7745 831.44 80.7745 829.92C80.7745 828.4 81.0145 827.087 81.4945 825.98C81.9745 824.86 82.6545 824 83.5345 823.4C84.4278 822.787 85.4745 822.48 86.6745 822.48C87.9011 822.48 88.9545 822.787 89.8345 823.4C90.7145 824 91.3945 824.853 91.8745 825.96C92.3545 827.067 92.5945 828.387 92.5945 829.92C92.5945 831.44 92.3545 832.753 91.8745 833.86C91.3945 834.967 90.7145 835.82 89.8345 836.42C88.9545 837.02 87.9011 837.32 86.6745 837.32ZM86.6745 835.06C87.7145 835.06 88.5145 834.627 89.0745 833.76C89.6345 832.88 89.9145 831.6 89.9145 829.92C89.9145 828.8 89.7878 827.853 89.5345 827.08C89.2811 826.307 88.9145 825.727 88.4345 825.34C87.9678 824.94 87.3811 824.74 86.6745 824.74C85.9945 824.74 85.4145 824.94 84.9345 825.34C84.4545 825.727 84.0878 826.307 83.8345 827.08C83.5811 827.853 83.4545 828.8 83.4545 829.92C83.4545 831.6 83.7345 832.88 84.2945 833.76C84.8545 834.627 85.6478 835.06 86.6745 835.06ZM100.405 837.32C99.2049 837.32 98.1583 837.02 97.2649 836.42C96.3849 835.82 95.7049 834.967 95.2249 833.86C94.7449 832.753 94.5049 831.44 94.5049 829.92C94.5049 828.4 94.7449 827.087 95.2249 825.98C95.7049 824.86 96.3849 824 97.2649 823.4C98.1583 822.787 99.2049 822.48 100.405 822.48C101.632 822.48 102.685 822.787 103.565 823.4C104.445 824 105.125 824.853 105.605 825.96C106.085 827.067 106.325 828.387 106.325 829.92C106.325 831.44 106.085 832.753 105.605 833.86C105.125 834.967 104.445 835.82 103.565 836.42C102.685 837.02 101.632 837.32 100.405 837.32ZM100.405 835.06C101.445 835.06 102.245 834.627 102.805 833.76C103.365 832.88 103.645 831.6 103.645 829.92C103.645 828.8 103.518 827.853 103.265 827.08C103.012 826.307 102.645 825.727 102.165 825.34C101.698 824.94 101.112 824.74 100.405 824.74C99.7249 824.74 99.1449 824.94 98.6649 825.34C98.1849 825.727 97.8183 826.307 97.5649 827.08C97.3116 827.853 97.1849 828.8 97.1849 829.92C97.1849 831.6 97.4649 832.88 98.0249 833.76C98.5849 834.627 99.3783 835.06 100.405 835.06Z" fill="#9B9EA3"/>
<rect x="18.5" y="856.5" width="78" height="78" rx="5.5" stroke="white" stroke-opacity="0.2"/>
<path d="M47.5309 888L52.6509 873.8H54.9709L60.0909 888H58.2109L56.7909 883.96H50.8309L49.4109 888H47.5309ZM51.4109 882.28H56.2109L53.8109 875.3L51.4109 882.28ZM61.3702 882.96V881.38H67.9902V882.96H61.3702Z" fill="#22C55E"/>
<path d="M39.6126 912V900.64H40.9886V906.16L40.2846 905.616H47.4046L46.7006 906.16V900.64H48.0766V912H46.7006V906.416L47.4046 906.96H40.2846L40.9886 906.416V912H39.6126ZM53.9826 912.192C53.204 912.192 52.5213 912.011 51.9346 911.648C51.348 911.285 50.8946 910.773 50.5746 910.112C50.2546 909.44 50.0946 908.656 50.0946 907.76C50.0946 906.853 50.2546 906.069 50.5746 905.408C50.8946 904.747 51.348 904.235 51.9346 903.872C52.5213 903.509 53.204 903.328 53.9826 903.328C54.7613 903.328 55.4386 903.509 56.0146 903.872C56.6013 904.235 57.0546 904.747 57.3746 905.408C57.6946 906.069 57.8546 906.853 57.8546 907.76C57.8546 908.656 57.6946 909.44 57.3746 910.112C57.0546 910.773 56.6013 911.285 56.0146 911.648C55.4386 912.011 54.7613 912.192 53.9826 912.192ZM53.9826 910.912C54.7613 910.912 55.364 910.635 55.7906 910.08C56.228 909.515 56.4466 908.741 56.4466 907.76C56.4466 906.779 56.228 906.011 55.7906 905.456C55.364 904.891 54.7613 904.608 53.9826 904.608C53.204 904.608 52.596 904.891 52.1586 905.456C51.7213 906.011 51.5026 906.779 51.5026 907.76C51.5026 908.741 51.7213 909.515 52.1586 910.08C52.596 910.635 53.204 910.912 53.9826 910.912ZM62.9983 912.192C62.2196 912.192 61.5369 912.011 60.9503 911.648C60.3636 911.285 59.9103 910.773 59.5903 910.112C59.2703 909.44 59.1103 908.656 59.1103 907.76C59.1103 906.853 59.2703 906.069 59.5903 905.408C59.9103 904.747 60.3636 904.235 60.9503 903.872C61.5369 903.509 62.2196 903.328 62.9983 903.328C63.7769 903.328 64.4543 903.509 65.0303 903.872C65.6169 904.235 66.0703 904.747 66.3903 905.408C66.7103 906.069 66.8703 906.853 66.8703 907.76C66.8703 908.656 66.7103 909.44 66.3903 910.112C66.0703 910.773 65.6169 911.285 65.0303 911.648C64.4543 912.011 63.7769 912.192 62.9983 912.192ZM62.9983 910.912C63.7769 910.912 64.3796 910.635 64.8063 910.08C65.2436 909.515 65.4623 908.741 65.4623 907.76C65.4623 906.779 65.2436 906.011 64.8063 905.456C64.3796 904.891 63.7769 904.608 62.9983 904.608C62.2196 904.608 61.6116 904.891 61.1743 905.456C60.7369 906.011 60.5182 906.779 60.5182 907.76C60.5182 908.741 60.7369 909.515 61.1743 910.08C61.6116 910.635 62.2196 910.912 62.9983 910.912ZM68.7019 912V900.64H70.0459V908.08L74.1739 903.52H75.9659L72.6219 907.12L76.1099 912H74.4779L71.7099 908.032L70.0459 909.792V912H68.7019Z" fill="white" fill-opacity="0.5"/>
<rect x="105.5" y="856.5" width="78" height="78" rx="5.5" stroke="white" stroke-opacity="0.2"/>
<path d="M134.531 888L139.651 873.8H141.971L147.091 888H145.211L143.791 883.96H137.831L136.411 888H134.531ZM138.411 882.28H143.211L140.811 875.3L138.411 882.28ZM148.37 882.96V881.38H154.99V882.96H148.37Z" fill="#22C55E"/>
<path d="M125.886 912V900.64H133.022V901.984H126.574L127.262 901.28V906.496L126.574 905.792H132.734V907.104H126.574L127.262 906.4V912H125.886ZM136.483 912C135.992 912 135.592 911.872 135.283 911.616C134.974 911.36 134.819 910.955 134.819 910.4V900.64H136.163V910.288C136.163 910.459 136.206 910.592 136.291 910.688C136.387 910.773 136.52 910.816 136.691 910.816H137.427V912H136.483ZM142.303 912.192C141.524 912.192 140.842 912.011 140.255 911.648C139.668 911.285 139.215 910.773 138.895 910.112C138.575 909.44 138.415 908.656 138.415 907.76C138.415 906.853 138.575 906.069 138.895 905.408C139.215 904.747 139.668 904.235 140.255 903.872C140.842 903.509 141.524 903.328 142.303 903.328C143.082 903.328 143.759 903.509 144.335 903.872C144.922 904.235 145.375 904.747 145.695 905.408C146.015 906.069 146.175 906.853 146.175 907.76C146.175 908.656 146.015 909.44 145.695 910.112C145.375 910.773 144.922 911.285 144.335 911.648C143.759 912.011 143.082 912.192 142.303 912.192ZM142.303 910.912C143.082 910.912 143.684 910.635 144.111 910.08C144.548 909.515 144.767 908.741 144.767 907.76C144.767 906.779 144.548 906.011 144.111 905.456C143.684 904.891 143.082 904.608 142.303 904.608C141.524 904.608 140.916 904.891 140.479 905.456C140.042 906.011 139.823 906.779 139.823 907.76C139.823 908.741 140.042 909.515 140.479 910.08C140.916 910.635 141.524 910.912 142.303 910.912ZM149.453 912L146.829 903.52H148.301L150.285 910.592L152.301 903.52H153.741L155.757 910.592L157.757 903.52H159.229L156.605 912H154.909L153.021 905.552L151.133 912H149.453Z" fill="white" fill-opacity="0.5"/>
<rect x="192.5" y="856.5" width="78" height="78" rx="5.5" stroke="white" stroke-opacity="0.2"/>
<path d="M227.043 888V873.8H231.923C233.603 873.8 234.863 874.107 235.703 874.72C236.543 875.333 236.963 876.3 236.963 877.62C236.963 878.233 236.83 878.773 236.563 879.24C236.296 879.707 235.916 880.073 235.423 880.34C234.93 880.593 234.343 880.72 233.663 880.72L233.643 880.6C234.856 880.6 235.81 880.927 236.503 881.58C237.21 882.22 237.563 883.06 237.563 884.1C237.563 885.393 237.143 886.367 236.303 887.02C235.463 887.673 234.27 888 232.723 888H227.043ZM228.763 886.32H232.723C233.696 886.32 234.443 886.12 234.963 885.72C235.496 885.32 235.763 884.747 235.763 884C235.763 883.253 235.496 882.673 234.963 882.26C234.443 881.833 233.696 881.62 232.723 881.62H228.763V886.32ZM228.763 879.94H231.923C232.963 879.94 233.763 879.747 234.323 879.36C234.883 878.96 235.163 878.407 235.163 877.7C235.163 876.953 234.89 876.4 234.343 876.04C233.81 875.667 233.003 875.48 231.923 875.48H228.763V879.94Z" fill="#FFCA00"/>
<path d="M215.565 912L211.453 900.64H212.957L216.477 910.496L219.981 900.64H221.485L217.373 912H215.565ZM224.654 912.192C223.779 912.192 223.081 911.989 222.558 911.584C222.046 911.179 221.79 910.613 221.79 909.888C221.79 909.163 222.003 908.592 222.43 908.176C222.857 907.76 223.534 907.467 224.462 907.296L227.47 906.736C227.47 906.021 227.299 905.488 226.958 905.136C226.627 904.784 226.126 904.608 225.454 904.608C224.867 904.608 224.403 904.741 224.062 905.008C223.721 905.264 223.486 905.637 223.358 906.128L221.934 906.016C222.094 905.216 222.478 904.571 223.086 904.08C223.705 903.579 224.494 903.328 225.454 903.328C226.542 903.328 227.374 903.637 227.95 904.256C228.526 904.864 228.814 905.707 228.814 906.784V910.288C228.814 910.48 228.846 910.619 228.91 910.704C228.985 910.779 229.102 910.816 229.262 910.816H229.598V912C229.555 912.011 229.486 912.016 229.39 912.016C229.294 912.027 229.193 912.032 229.086 912.032C228.702 912.032 228.387 911.973 228.142 911.856C227.907 911.728 227.737 911.536 227.63 911.28C227.523 911.013 227.47 910.667 227.47 910.24L227.63 910.272C227.555 910.635 227.374 910.965 227.086 911.264C226.798 911.552 226.441 911.781 226.014 911.952C225.587 912.112 225.134 912.192 224.654 912.192ZM224.782 911.008C225.347 911.008 225.827 910.901 226.222 910.688C226.627 910.464 226.937 910.165 227.15 909.792C227.363 909.408 227.47 908.981 227.47 908.512V907.904L224.718 908.416C224.142 908.523 223.742 908.688 223.518 908.912C223.305 909.125 223.198 909.408 223.198 909.76C223.198 910.155 223.337 910.464 223.614 910.688C223.902 910.901 224.291 911.008 224.782 911.008ZM232.686 912C232.196 912 231.796 911.872 231.486 911.616C231.177 911.36 231.022 910.955 231.022 910.4V900.64H232.366V910.288C232.366 910.459 232.409 910.592 232.494 910.688C232.59 910.773 232.724 910.816 232.894 910.816H233.63V912H232.686ZM237.916 912.192C237.073 912.192 236.396 911.909 235.884 911.344C235.382 910.768 235.132 909.979 235.132 908.976V903.52H236.476V908.608C236.476 909.429 236.62 910.037 236.908 910.432C237.206 910.816 237.66 911.008 238.268 911.008C238.94 911.008 239.468 910.795 239.852 910.368C240.236 909.931 240.428 909.333 240.428 908.576V903.52H241.772V912H240.492V909.904L240.7 910.016C240.529 910.709 240.204 911.248 239.724 911.632C239.244 912.005 238.641 912.192 237.916 912.192ZM247.49 912.192C246.69 912.192 245.997 912.011 245.41 911.648C244.834 911.285 244.386 910.773 244.066 910.112C243.757 909.44 243.602 908.656 243.602 907.76C243.602 906.864 243.757 906.085 244.066 905.424C244.386 904.763 244.829 904.251 245.394 903.888C245.97 903.515 246.648 903.328 247.426 903.328C248.162 903.328 248.813 903.504 249.378 903.856C249.944 904.197 250.381 904.699 250.69 905.36C251.01 906.021 251.17 906.827 251.17 907.776V908.176H245.01C245.064 909.083 245.304 909.765 245.73 910.224C246.168 910.683 246.754 910.912 247.49 910.912C248.045 910.912 248.498 910.784 248.85 910.528C249.213 910.261 249.464 909.915 249.602 909.488L251.042 909.6C250.818 910.357 250.392 910.981 249.762 911.472C249.144 911.952 248.386 912.192 247.49 912.192ZM245.01 906.992H249.698C249.634 906.171 249.394 905.568 248.978 905.184C248.573 904.8 248.056 904.608 247.426 904.608C246.776 904.608 246.237 904.811 245.81 905.216C245.394 905.611 245.128 906.203 245.01 906.992Z" fill="white" fill-opacity="0.5"/>
<rect x="279.5" y="856.5" width="78" height="78" rx="5.5" stroke="white" stroke-opacity="0.2"/>
<path d="M318.749 888.32C317.482 888.32 316.369 888.027 315.409 887.44C314.449 886.84 313.702 885.987 313.169 884.88C312.635 883.773 312.369 882.453 312.369 880.92C312.369 879.387 312.635 878.067 313.169 876.96C313.702 875.84 314.449 874.98 315.409 874.38C316.369 873.78 317.482 873.48 318.749 873.48C320.469 873.48 321.802 873.913 322.749 874.78C323.695 875.647 324.315 876.827 324.609 878.32L322.789 878.44C322.589 877.427 322.162 876.627 321.509 876.04C320.855 875.453 319.935 875.16 318.749 875.16C317.842 875.16 317.042 875.393 316.349 875.86C315.669 876.313 315.135 876.973 314.749 877.84C314.362 878.693 314.169 879.72 314.169 880.92C314.169 882.12 314.362 883.147 314.749 884C315.135 884.853 315.669 885.507 316.349 885.96C317.042 886.413 317.842 886.64 318.749 886.64C319.989 886.64 320.949 886.32 321.629 885.68C322.309 885.027 322.735 884.147 322.909 883.04L324.729 883.16C324.555 884.187 324.215 885.087 323.709 885.86C323.202 886.633 322.529 887.24 321.689 887.68C320.862 888.107 319.882 888.32 318.749 888.32Z" fill="#FF8B16"/>
<path d="M302.783 912V901.984H299.247V900.64H307.695V901.984H304.159V912H302.783ZM308.366 912V903.52H309.55L309.614 905.664L309.486 905.616C309.593 904.891 309.822 904.363 310.174 904.032C310.537 903.691 311.017 903.52 311.614 903.52H312.446V904.8H311.63C311.203 904.8 310.846 904.88 310.558 905.04C310.281 905.189 310.067 905.419 309.918 905.728C309.779 906.027 309.71 906.411 309.71 906.88V912H308.366ZM317.1 912.192C316.3 912.192 315.606 912.011 315.02 911.648C314.444 911.285 313.996 910.773 313.676 910.112C313.366 909.44 313.212 908.656 313.212 907.76C313.212 906.864 313.366 906.085 313.676 905.424C313.996 904.763 314.438 904.251 315.004 903.888C315.58 903.515 316.257 903.328 317.036 903.328C317.772 903.328 318.422 903.504 318.988 903.856C319.553 904.197 319.99 904.699 320.3 905.36C320.62 906.021 320.78 906.827 320.78 907.776V908.176H314.62C314.673 909.083 314.913 909.765 315.34 910.224C315.777 910.683 316.364 910.912 317.1 910.912C317.654 910.912 318.108 910.784 318.46 910.528C318.822 910.261 319.073 909.915 319.212 909.488L320.652 909.6C320.428 910.357 320.001 910.981 319.372 911.472C318.753 911.952 317.996 912.192 317.1 912.192ZM314.62 906.992H319.308C319.244 906.171 319.004 905.568 318.588 905.184C318.182 904.8 317.665 904.608 317.036 904.608C316.385 904.608 315.846 904.811 315.42 905.216C315.004 905.611 314.737 906.203 314.62 906.992ZM322.6 912V903.52H323.832L323.88 905.68L323.72 905.536C323.827 905.035 324.014 904.624 324.28 904.304C324.547 903.973 324.867 903.728 325.24 903.568C325.624 903.408 326.035 903.328 326.472 903.328C327.123 903.328 327.656 903.472 328.072 903.76C328.499 904.048 328.814 904.437 329.016 904.928C329.23 905.408 329.336 905.947 329.336 906.544V912H327.992V906.928C327.992 906.405 327.928 905.968 327.8 905.616C327.683 905.253 327.491 904.981 327.224 904.8C326.958 904.608 326.611 904.512 326.184 904.512C325.534 904.512 324.995 904.72 324.568 905.136C324.152 905.541 323.944 906.139 323.944 906.928V912H322.6ZM334.718 912.192C333.982 912.192 333.342 912.011 332.798 911.648C332.264 911.285 331.854 910.773 331.566 910.112C331.278 909.451 331.134 908.667 331.134 907.76C331.134 906.853 331.278 906.069 331.566 905.408C331.854 904.747 332.264 904.235 332.798 903.872C333.342 903.509 333.982 903.328 334.718 903.328C335.283 903.328 335.8 903.451 336.27 903.696C336.739 903.931 337.091 904.267 337.326 904.704V900.64H338.67V912H337.454L337.406 910.72C337.171 911.179 336.814 911.541 336.334 911.808C335.854 912.064 335.315 912.192 334.718 912.192ZM334.99 910.912C335.491 910.912 335.912 910.784 336.254 910.528C336.606 910.272 336.872 909.909 337.054 909.44C337.235 908.96 337.326 908.4 337.326 907.76C337.326 907.099 337.235 906.533 337.054 906.064C336.872 905.595 336.606 905.237 336.254 904.992C335.912 904.736 335.491 904.608 334.99 904.608C334.243 904.608 333.646 904.891 333.198 905.456C332.76 906.011 332.542 906.779 332.542 907.76C332.542 908.731 332.76 909.499 333.198 910.064C333.646 910.629 334.243 910.912 334.99 910.912Z" fill="white" fill-opacity="0.5"/>
<path d="M24.872 1165.22C24.0507 1165.22 23.3413 1165.08 22.744 1164.79C22.1467 1164.5 21.6753 1164.1 21.33 1163.59C20.994 1163.06 20.798 1162.46 20.742 1161.77L22.59 1161.65C22.646 1162.08 22.7673 1162.45 22.954 1162.75C23.15 1163.04 23.4067 1163.27 23.724 1163.43C24.0507 1163.58 24.4427 1163.66 24.9 1163.66C25.292 1163.66 25.6233 1163.61 25.894 1163.52C26.174 1163.41 26.384 1163.27 26.524 1163.08C26.6733 1162.89 26.748 1162.65 26.748 1162.37C26.748 1162.12 26.6873 1161.89 26.566 1161.7C26.4447 1161.49 26.2113 1161.31 25.866 1161.15C25.5207 1160.98 25.0073 1160.82 24.326 1160.66C23.5047 1160.47 22.8467 1160.26 22.352 1160.03C21.8573 1159.79 21.498 1159.49 21.274 1159.13C21.05 1158.77 20.938 1158.32 20.938 1157.78C20.938 1157.2 21.0827 1156.69 21.372 1156.25C21.6613 1155.8 22.072 1155.46 22.604 1155.21C23.136 1154.96 23.7753 1154.84 24.522 1154.84C25.3153 1154.84 25.9873 1154.98 26.538 1155.27C27.0887 1155.55 27.5227 1155.94 27.84 1156.43C28.1573 1156.93 28.3533 1157.5 28.428 1158.14L26.594 1158.22C26.5473 1157.86 26.4353 1157.54 26.258 1157.27C26.09 1157 25.8567 1156.79 25.558 1156.64C25.2687 1156.48 24.914 1156.4 24.494 1156.4C23.9713 1156.4 23.556 1156.53 23.248 1156.77C22.9493 1157 22.8 1157.31 22.8 1157.71C22.8 1157.98 22.8607 1158.2 22.982 1158.38C23.1127 1158.56 23.3413 1158.71 23.668 1158.84C23.9947 1158.96 24.452 1159.09 25.04 1159.23C25.9267 1159.42 26.6313 1159.66 27.154 1159.95C27.6767 1160.24 28.05 1160.57 28.274 1160.95C28.498 1161.34 28.61 1161.78 28.61 1162.27C28.61 1162.88 28.456 1163.4 28.148 1163.85C27.84 1164.29 27.406 1164.63 26.846 1164.87C26.286 1165.11 25.628 1165.22 24.872 1165.22ZM33.7026 1165.17C32.9559 1165.17 32.3073 1165.01 31.7566 1164.69C31.2059 1164.37 30.7766 1163.91 30.4686 1163.32C30.1699 1162.73 30.0206 1162.05 30.0206 1161.26C30.0206 1160.48 30.1699 1159.8 30.4686 1159.22C30.7766 1158.63 31.2059 1158.17 31.7566 1157.85C32.3073 1157.52 32.9559 1157.36 33.7026 1157.36C34.3373 1157.36 34.9019 1157.47 35.3966 1157.69C35.8913 1157.92 36.2926 1158.24 36.6006 1158.66C36.9179 1159.07 37.1139 1159.57 37.1886 1160.17L35.3406 1160.27C35.2659 1159.79 35.0793 1159.43 34.7806 1159.19C34.4913 1158.94 34.1319 1158.81 33.7026 1158.81C33.1239 1158.81 32.6759 1159.03 32.3586 1159.47C32.0413 1159.9 31.8826 1160.5 31.8826 1161.26C31.8826 1162.04 32.0413 1162.64 32.3586 1163.07C32.6759 1163.5 33.1239 1163.71 33.7026 1163.71C34.1413 1163.71 34.5053 1163.59 34.7946 1163.33C35.0933 1163.08 35.2753 1162.69 35.3406 1162.16L37.1886 1162.24C37.1139 1162.84 36.9226 1163.36 36.6146 1163.8C36.3066 1164.23 35.9053 1164.58 35.4106 1164.82C34.9159 1165.05 34.3466 1165.17 33.7026 1165.17ZM41.673 1165.17C40.9263 1165.17 40.2777 1165.01 39.727 1164.69C39.1763 1164.37 38.7517 1163.91 38.453 1163.32C38.1543 1162.73 38.005 1162.05 38.005 1161.26C38.005 1160.48 38.1543 1159.8 38.453 1159.22C38.7517 1158.63 39.1717 1158.17 39.713 1157.85C40.2637 1157.52 40.903 1157.36 41.631 1157.36C42.3403 1157.36 42.961 1157.51 43.493 1157.83C44.0343 1158.15 44.4497 1158.61 44.739 1159.2C45.0283 1159.8 45.173 1160.52 45.173 1161.36V1161.77H39.867C39.9043 1162.42 40.0817 1162.91 40.399 1163.25C40.7257 1163.58 41.155 1163.74 41.687 1163.74C42.0883 1163.74 42.4197 1163.65 42.681 1163.47C42.9517 1163.29 43.1383 1163.03 43.241 1162.7L45.075 1162.82C44.8697 1163.54 44.4637 1164.12 43.857 1164.54C43.2597 1164.96 42.5317 1165.17 41.673 1165.17ZM39.867 1160.56H43.325C43.2877 1159.96 43.115 1159.51 42.807 1159.22C42.499 1158.92 42.107 1158.77 41.631 1158.77C41.155 1158.77 40.7583 1158.92 40.441 1159.23C40.133 1159.54 39.9417 1159.98 39.867 1160.56ZM46.5738 1165V1157.52H48.1978L48.2678 1159.62L48.0578 1159.54C48.1324 1159.02 48.2864 1158.6 48.5198 1158.28C48.7531 1157.96 49.0378 1157.73 49.3738 1157.58C49.7098 1157.43 50.0784 1157.36 50.4798 1157.36C51.0304 1157.36 51.4924 1157.48 51.8658 1157.72C52.2484 1157.96 52.5378 1158.3 52.7338 1158.73C52.9298 1159.15 53.0278 1159.64 53.0278 1160.2V1165H51.2358V1160.77C51.2358 1160.35 51.1938 1160 51.1098 1159.71C51.0258 1159.42 50.8858 1159.2 50.6898 1159.05C50.5031 1158.89 50.2511 1158.81 49.9338 1158.81C49.4578 1158.81 49.0751 1158.98 48.7858 1159.32C48.5058 1159.65 48.3658 1160.14 48.3658 1160.77V1165H46.5738ZM58.0382 1165.17C57.2916 1165.17 56.6429 1165.01 56.0922 1164.69C55.5416 1164.37 55.1169 1163.91 54.8182 1163.32C54.5196 1162.73 54.3702 1162.05 54.3702 1161.26C54.3702 1160.48 54.5196 1159.8 54.8182 1159.22C55.1169 1158.63 55.5369 1158.17 56.0782 1157.85C56.6289 1157.52 57.2682 1157.36 57.9962 1157.36C58.7056 1157.36 59.3262 1157.51 59.8582 1157.83C60.3996 1158.15 60.8149 1158.61 61.1042 1159.2C61.3936 1159.8 61.5382 1160.52 61.5382 1161.36V1161.77H56.2322C56.2696 1162.42 56.4469 1162.91 56.7642 1163.25C57.0909 1163.58 57.5202 1163.74 58.0522 1163.74C58.4536 1163.74 58.7849 1163.65 59.0462 1163.47C59.3169 1163.29 59.5036 1163.03 59.6062 1162.7L61.4402 1162.82C61.2349 1163.54 60.8289 1164.12 60.2222 1164.54C59.6249 1164.96 58.8969 1165.17 58.0382 1165.17ZM56.2322 1160.56H59.6902C59.6529 1159.96 59.4802 1159.51 59.1722 1159.22C58.8642 1158.92 58.4722 1158.77 57.9962 1158.77C57.5202 1158.77 57.1236 1158.92 56.8062 1159.23C56.4982 1159.54 56.3069 1159.98 56.2322 1160.56ZM68.5543 1165.17C67.7703 1165.17 67.1403 1164.99 66.6643 1164.64C66.1883 1164.27 65.9503 1163.77 65.9503 1163.12C65.9503 1162.48 66.151 1161.98 66.5523 1161.61C66.9536 1161.25 67.565 1160.99 68.3863 1160.83L70.8643 1160.34C70.8643 1159.81 70.743 1159.41 70.5003 1159.15C70.2576 1158.88 69.8983 1158.74 69.4223 1158.74C68.993 1158.74 68.6523 1158.84 68.4003 1159.05C68.1576 1159.25 67.9896 1159.53 67.8963 1159.9L66.0763 1159.82C66.2256 1159.03 66.5896 1158.42 67.1683 1158C67.747 1157.57 68.4983 1157.36 69.4223 1157.36C70.4863 1157.36 71.289 1157.63 71.8303 1158.17C72.381 1158.7 72.6563 1159.47 72.6563 1160.46V1163.18C72.6563 1163.38 72.689 1163.51 72.7543 1163.59C72.829 1163.66 72.9363 1163.7 73.0763 1163.7H73.3143V1165C73.2583 1165.02 73.165 1165.03 73.0343 1165.04C72.913 1165.05 72.787 1165.06 72.6563 1165.06C72.3483 1165.06 72.073 1165.01 71.8303 1164.92C71.5876 1164.81 71.401 1164.64 71.2703 1164.4C71.1396 1164.15 71.0743 1163.81 71.0743 1163.38L71.2283 1163.49C71.1536 1163.81 70.9903 1164.11 70.7383 1164.37C70.4956 1164.62 70.1876 1164.82 69.8143 1164.96C69.441 1165.1 69.021 1165.17 68.5543 1165.17ZM68.9183 1163.87C69.3196 1163.87 69.665 1163.79 69.9543 1163.63C70.2436 1163.47 70.4676 1163.25 70.6263 1162.97C70.785 1162.69 70.8643 1162.36 70.8643 1161.98V1161.56L68.9323 1161.95C68.531 1162.03 68.2416 1162.16 68.0643 1162.33C67.8963 1162.48 67.8123 1162.69 67.8123 1162.96C67.8123 1163.25 67.9056 1163.47 68.0923 1163.63C68.2883 1163.79 68.5636 1163.87 68.9183 1163.87ZM74.478 1165V1157.52H76.102L76.172 1159.62L75.962 1159.54C76.0367 1159.02 76.1907 1158.6 76.424 1158.28C76.6574 1157.96 76.942 1157.73 77.278 1157.58C77.614 1157.43 77.9827 1157.36 78.384 1157.36C78.9347 1157.36 79.3967 1157.48 79.77 1157.72C80.1527 1157.96 80.442 1158.3 80.638 1158.73C80.834 1159.15 80.932 1159.64 80.932 1160.2V1165H79.14V1160.77C79.14 1160.35 79.098 1160 79.014 1159.71C78.93 1159.42 78.79 1159.2 78.594 1159.05C78.4074 1158.89 78.1554 1158.81 77.838 1158.81C77.362 1158.81 76.9794 1158.98 76.69 1159.32C76.41 1159.65 76.27 1160.14 76.27 1160.77V1165H74.478ZM84.8922 1165.17C84.1082 1165.17 83.4782 1164.99 83.0022 1164.64C82.5262 1164.27 82.2882 1163.77 82.2882 1163.12C82.2882 1162.48 82.4889 1161.98 82.8902 1161.61C83.2915 1161.25 83.9029 1160.99 84.7242 1160.83L87.2022 1160.34C87.2022 1159.81 87.0809 1159.41 86.8382 1159.15C86.5955 1158.88 86.2362 1158.74 85.7602 1158.74C85.3309 1158.74 84.9902 1158.84 84.7382 1159.05C84.4955 1159.25 84.3275 1159.53 84.2342 1159.9L82.4142 1159.82C82.5635 1159.03 82.9275 1158.42 83.5062 1158C84.0849 1157.57 84.8362 1157.36 85.7602 1157.36C86.8242 1157.36 87.6269 1157.63 88.1682 1158.17C88.7189 1158.7 88.9942 1159.47 88.9942 1160.46V1163.18C88.9942 1163.38 89.0269 1163.51 89.0922 1163.59C89.1669 1163.66 89.2742 1163.7 89.4142 1163.7H89.6522V1165C89.5962 1165.02 89.5029 1165.03 89.3722 1165.04C89.2509 1165.05 89.1249 1165.06 88.9942 1165.06C88.6862 1165.06 88.4109 1165.01 88.1682 1164.92C87.9255 1164.81 87.7389 1164.64 87.6082 1164.4C87.4775 1164.15 87.4122 1163.81 87.4122 1163.38L87.5662 1163.49C87.4915 1163.81 87.3282 1164.11 87.0762 1164.37C86.8335 1164.62 86.5255 1164.82 86.1522 1164.96C85.7789 1165.1 85.3589 1165.17 84.8922 1165.17ZM85.2562 1163.87C85.6575 1163.87 86.0029 1163.79 86.2922 1163.63C86.5815 1163.47 86.8055 1163.25 86.9642 1162.97C87.1229 1162.69 87.2022 1162.36 87.2022 1161.98V1161.56L85.2702 1161.95C84.8689 1162.03 84.5795 1162.16 84.4022 1162.33C84.2342 1162.48 84.1502 1162.69 84.1502 1162.96C84.1502 1163.25 84.2435 1163.47 84.4302 1163.63C84.6262 1163.79 84.9015 1163.87 85.2562 1163.87ZM92.4986 1165C91.9572 1165 91.5232 1164.86 91.1966 1164.58C90.8699 1164.3 90.7066 1163.85 90.7066 1163.24V1155.06H92.4986V1163.05C92.4986 1163.24 92.5452 1163.38 92.6386 1163.47C92.7412 1163.57 92.8812 1163.61 93.0586 1163.61H93.6046V1165H92.4986ZM94.9573 1167.1V1165.71H95.9093C96.152 1165.71 96.3293 1165.68 96.4413 1165.6C96.5626 1165.53 96.656 1165.4 96.7213 1165.22L96.9313 1164.71H96.4133L93.7393 1157.52H95.6013L97.4773 1163.03L99.2693 1157.52H101.131L98.2053 1165.78C98.0373 1166.25 97.7993 1166.59 97.4913 1166.79C97.1926 1167 96.7726 1167.1 96.2313 1167.1H94.9573ZM105.051 1165.17C104.314 1165.17 103.693 1165.06 103.189 1164.85C102.695 1164.63 102.312 1164.33 102.041 1163.95C101.771 1163.57 101.617 1163.13 101.579 1162.65L103.413 1162.56C103.479 1162.96 103.642 1163.26 103.903 1163.47C104.165 1163.69 104.552 1163.8 105.065 1163.8C105.485 1163.8 105.812 1163.73 106.045 1163.6C106.288 1163.46 106.409 1163.25 106.409 1162.96C106.409 1162.79 106.367 1162.65 106.283 1162.54C106.199 1162.42 106.041 1162.33 105.807 1162.24C105.574 1162.16 105.229 1162.07 104.771 1161.99C104.006 1161.86 103.404 1161.7 102.965 1161.51C102.527 1161.32 102.214 1161.08 102.027 1160.79C101.85 1160.5 101.761 1160.14 101.761 1159.71C101.761 1159.01 102.027 1158.44 102.559 1158.01C103.101 1157.58 103.889 1157.36 104.925 1157.36C105.597 1157.36 106.162 1157.47 106.619 1157.69C107.077 1157.91 107.431 1158.21 107.683 1158.59C107.945 1158.96 108.108 1159.39 108.173 1159.88L106.367 1159.96C106.321 1159.71 106.237 1159.49 106.115 1159.3C105.994 1159.12 105.831 1158.98 105.625 1158.88C105.42 1158.78 105.177 1158.73 104.897 1158.73C104.477 1158.73 104.16 1158.81 103.945 1158.98C103.731 1159.15 103.623 1159.37 103.623 1159.65C103.623 1159.85 103.67 1160.01 103.763 1160.14C103.866 1160.27 104.029 1160.38 104.253 1160.46C104.477 1160.54 104.776 1160.61 105.149 1160.67C105.933 1160.8 106.549 1160.95 106.997 1161.15C107.455 1161.34 107.777 1161.58 107.963 1161.88C108.159 1162.17 108.257 1162.52 108.257 1162.93C108.257 1163.4 108.122 1163.81 107.851 1164.15C107.59 1164.48 107.217 1164.74 106.731 1164.92C106.255 1165.08 105.695 1165.17 105.051 1165.17ZM109.656 1165V1157.52H111.448V1165H109.656ZM109.628 1156.53V1154.93H111.49V1156.53H109.628ZM116.317 1165.17C115.579 1165.17 114.959 1165.06 114.455 1164.85C113.96 1164.63 113.577 1164.33 113.307 1163.95C113.036 1163.57 112.882 1163.13 112.845 1162.65L114.679 1162.56C114.744 1162.96 114.907 1163.26 115.169 1163.47C115.43 1163.69 115.817 1163.8 116.331 1163.8C116.751 1163.8 117.077 1163.73 117.311 1163.6C117.553 1163.46 117.675 1163.25 117.675 1162.96C117.675 1162.79 117.633 1162.65 117.549 1162.54C117.465 1162.42 117.306 1162.33 117.073 1162.24C116.839 1162.16 116.494 1162.07 116.037 1161.99C115.271 1161.86 114.669 1161.7 114.231 1161.51C113.792 1161.32 113.479 1161.08 113.293 1160.79C113.115 1160.5 113.027 1160.14 113.027 1159.71C113.027 1159.01 113.293 1158.44 113.825 1158.01C114.366 1157.58 115.155 1157.36 116.191 1157.36C116.863 1157.36 117.427 1157.47 117.885 1157.69C118.342 1157.91 118.697 1158.21 118.949 1158.59C119.21 1158.96 119.373 1159.39 119.439 1159.88L117.633 1159.96C117.586 1159.71 117.502 1159.49 117.381 1159.3C117.259 1159.12 117.096 1158.98 116.891 1158.88C116.685 1158.78 116.443 1158.73 116.163 1158.73C115.743 1158.73 115.425 1158.81 115.211 1158.98C114.996 1159.15 114.889 1159.37 114.889 1159.65C114.889 1159.85 114.935 1160.01 115.029 1160.14C115.131 1160.27 115.295 1160.38 115.519 1160.46C115.743 1160.54 116.041 1160.61 116.415 1160.67C117.199 1160.8 117.815 1160.95 118.263 1161.15C118.72 1161.34 119.042 1161.58 119.229 1161.88C119.425 1162.17 119.523 1162.52 119.523 1162.93C119.523 1163.4 119.387 1163.81 119.117 1164.15C118.855 1164.48 118.482 1164.74 117.997 1164.92C117.521 1165.08 116.961 1165.17 116.317 1165.17Z" fill="white"/>
<g filter="url(#filter0_d_489_21560)">
<path d="M28 1239C28 1235.69 30.6863 1233 34 1233H162C165.314 1233 168 1235.69 168 1239V1267C168 1270.31 165.314 1273 162 1273H34C30.6863 1273 28 1270.31 28 1267V1239Z" fill="#FAFAFA" shape-rendering="crispEdges"/>
<path d="M86.204 1258V1248.06H92.672V1249.45H87.716V1252.34H92.504V1253.69H87.716V1256.61H92.784V1258H86.204ZM96.9812 1258.17C96.3465 1258.17 95.7912 1258.01 95.3152 1257.69C94.8485 1257.37 94.4892 1256.93 94.2372 1256.35C93.9945 1255.76 93.8732 1255.07 93.8732 1254.28C93.8732 1253.48 93.9992 1252.8 94.2512 1252.22C94.5032 1251.63 94.8625 1251.18 95.3292 1250.86C95.7958 1250.54 96.3465 1250.38 96.9812 1250.38C97.4945 1250.38 97.9518 1250.49 98.3532 1250.71C98.7545 1250.92 99.0578 1251.22 99.2632 1251.6V1248.06H100.747V1258H99.3612L99.3192 1256.88C99.1138 1257.28 98.8012 1257.6 98.3812 1257.83C97.9705 1258.06 97.5038 1258.17 96.9812 1258.17ZM97.3732 1256.88C97.7745 1256.88 98.1152 1256.78 98.3952 1256.57C98.6752 1256.37 98.8898 1256.07 99.0392 1255.68C99.1885 1255.28 99.2632 1254.82 99.2632 1254.28C99.2632 1253.72 99.1885 1253.24 99.0392 1252.86C98.8898 1252.47 98.6752 1252.18 98.3952 1251.98C98.1152 1251.77 97.7745 1251.67 97.3732 1251.67C96.7758 1251.67 96.2998 1251.91 95.9452 1252.37C95.5905 1252.83 95.4132 1253.46 95.4132 1254.28C95.4132 1255.08 95.5905 1255.71 95.9452 1256.18C96.2998 1256.65 96.7758 1256.88 97.3732 1256.88ZM102.607 1258V1250.55H104.091V1258H102.607ZM102.579 1249.47V1247.99H104.119V1249.47H102.579ZM108.539 1258C107.829 1258 107.307 1257.84 106.971 1257.51C106.635 1257.18 106.467 1256.67 106.467 1255.98V1248.8H107.951V1255.87C107.951 1256.22 108.025 1256.46 108.175 1256.59C108.324 1256.72 108.553 1256.78 108.861 1256.78H109.925V1258H108.539ZM105.333 1251.77V1250.55H109.925V1251.77H105.333Z" fill="#18181B"/>
</g>
<g filter="url(#filter1_d_489_21560)">
<path d="M209 1239C209 1235.69 211.686 1233 215 1233H343C346.314 1233 349 1235.69 349 1239V1267C349 1270.31 346.314 1273 343 1273H215C211.686 1273 209 1270.31 209 1267V1239Z" fill="#FAFAFA" shape-rendering="crispEdges"/>
<path d="M258.204 1258V1248.06H264.672V1249.45H259.716V1252.34H264.504V1253.69H259.716V1256.61H264.784V1258H258.204ZM265.765 1258L268.467 1254.19L265.877 1250.55H267.529L269.363 1253.23L271.141 1250.55H272.835L270.273 1254.22L272.947 1258H271.295L269.377 1255.16L267.445 1258H265.765ZM274.073 1260.1V1250.55H275.473L275.515 1252.15L275.347 1252.06C275.534 1251.51 275.842 1251.1 276.271 1250.82C276.701 1250.53 277.195 1250.38 277.755 1250.38C278.483 1250.38 279.081 1250.57 279.547 1250.93C280.023 1251.28 280.373 1251.76 280.597 1252.34C280.831 1252.93 280.947 1253.58 280.947 1254.28C280.947 1254.98 280.831 1255.62 280.597 1256.21C280.373 1256.8 280.023 1257.27 279.547 1257.64C279.081 1257.99 278.483 1258.17 277.755 1258.17C277.382 1258.17 277.032 1258.1 276.705 1257.97C276.379 1257.84 276.099 1257.66 275.865 1257.43C275.641 1257.18 275.483 1256.9 275.389 1256.57L275.557 1256.4V1260.1H274.073ZM277.489 1256.88C278.087 1256.88 278.553 1256.65 278.889 1256.19C279.235 1255.74 279.407 1255.1 279.407 1254.28C279.407 1253.45 279.235 1252.82 278.889 1252.36C278.553 1251.9 278.087 1251.67 277.489 1251.67C277.097 1251.67 276.757 1251.77 276.467 1251.97C276.178 1252.15 275.954 1252.44 275.795 1252.83C275.637 1253.23 275.557 1253.71 275.557 1254.28C275.557 1254.85 275.632 1255.33 275.781 1255.72C275.94 1256.11 276.164 1256.4 276.453 1256.6C276.752 1256.79 277.097 1256.88 277.489 1256.88ZM285.52 1258.17C284.811 1258.17 284.19 1258.01 283.658 1257.69C283.126 1257.37 282.716 1256.92 282.426 1256.33C282.137 1255.75 281.992 1255.06 281.992 1254.28C281.992 1253.48 282.137 1252.8 282.426 1252.22C282.716 1251.64 283.126 1251.19 283.658 1250.87C284.19 1250.55 284.811 1250.38 285.52 1250.38C286.23 1250.38 286.85 1250.55 287.382 1250.87C287.914 1251.19 288.325 1251.64 288.614 1252.22C288.904 1252.8 289.048 1253.48 289.048 1254.28C289.048 1255.06 288.904 1255.75 288.614 1256.33C288.325 1256.92 287.914 1257.37 287.382 1257.69C286.85 1258.01 286.23 1258.17 285.52 1258.17ZM285.52 1256.88C286.155 1256.88 286.645 1256.65 286.99 1256.19C287.336 1255.73 287.508 1255.09 287.508 1254.28C287.508 1253.46 287.336 1252.83 286.99 1252.37C286.645 1251.91 286.155 1251.67 285.52 1251.67C284.895 1251.67 284.405 1251.91 284.05 1252.37C283.705 1252.83 283.532 1253.46 283.532 1254.28C283.532 1255.09 283.705 1255.73 284.05 1256.19C284.405 1256.65 284.895 1256.88 285.52 1256.88ZM290.548 1258V1250.55H291.906L291.962 1252.53L291.836 1252.48C291.939 1251.81 292.144 1251.32 292.452 1251.01C292.769 1250.71 293.194 1250.55 293.726 1250.55H294.44V1251.88H293.726C293.353 1251.88 293.04 1251.94 292.788 1252.06C292.536 1252.19 292.345 1252.37 292.214 1252.62C292.093 1252.88 292.032 1253.2 292.032 1253.6V1258H290.548ZM298.299 1258C297.589 1258 297.067 1257.84 296.731 1257.51C296.395 1257.18 296.227 1256.67 296.227 1255.98V1248.8H297.711V1255.87C297.711 1256.22 297.785 1256.46 297.935 1256.59C298.084 1256.72 298.313 1256.78 298.621 1256.78H299.685V1258H298.299ZM295.093 1251.77V1250.55H299.685V1251.77H295.093Z" fill="#18181B"/>
</g>
<g clip-path="url(#clip2_489_21560)">
<path d="M38 57.0039L30 65.0039L38 73.0039" stroke="#FAFAFA" stroke-width="2" stroke-linecap="round" stroke-linejoin="round"/>
</g>
<path d="M148.499 72.32C147.326 72.32 146.312 72.1133 145.459 71.7C144.606 71.2867 143.932 70.7133 143.439 69.98C142.959 69.2333 142.679 68.3667 142.599 67.38L145.239 67.22C145.319 67.8333 145.492 68.3533 145.759 68.78C146.039 69.2067 146.406 69.5333 146.859 69.76C147.326 69.9733 147.886 70.08 148.539 70.08C149.099 70.08 149.572 70.0133 149.959 69.88C150.359 69.7333 150.659 69.5267 150.859 69.26C151.072 68.98 151.179 68.64 151.179 68.24C151.179 67.88 151.092 67.56 150.919 67.28C150.746 66.9867 150.412 66.7267 149.919 66.5C149.426 66.26 148.692 66.0267 147.719 65.8C146.546 65.5333 145.606 65.2333 144.899 64.9C144.192 64.5533 143.679 64.1267 143.359 63.62C143.039 63.1 142.879 62.4533 142.879 61.68C142.879 60.8533 143.086 60.1267 143.499 59.5C143.912 58.86 144.499 58.3667 145.259 58.02C146.019 57.66 146.932 57.48 147.999 57.48C149.132 57.48 150.092 57.6867 150.879 58.1C151.666 58.5 152.286 59.0533 152.739 59.76C153.192 60.4667 153.472 61.28 153.579 62.2L150.959 62.32C150.892 61.8 150.732 61.3467 150.479 60.96C150.239 60.5733 149.906 60.2733 149.479 60.06C149.066 59.8333 148.559 59.72 147.959 59.72C147.212 59.72 146.619 59.8933 146.179 60.24C145.752 60.5733 145.539 61.02 145.539 61.58C145.539 61.9667 145.626 62.2867 145.799 62.54C145.986 62.7933 146.312 63.0133 146.779 63.2C147.246 63.3733 147.899 63.56 148.739 63.76C150.006 64.0267 151.012 64.3667 151.759 64.78C152.506 65.1933 153.039 65.6733 153.359 66.22C153.679 66.7667 153.839 67.3933 153.839 68.1C153.839 68.9667 153.619 69.72 153.179 70.36C152.739 70.9867 152.119 71.4733 151.319 71.82C150.519 72.1533 149.579 72.32 148.499 72.32ZM160.594 72.24C159.528 72.24 158.601 72.0133 157.814 71.56C157.028 71.0933 156.421 70.44 155.994 69.6C155.568 68.76 155.354 67.78 155.354 66.66C155.354 65.54 155.568 64.5667 155.994 63.74C156.421 62.9 157.021 62.2467 157.794 61.78C158.581 61.3133 159.494 61.08 160.534 61.08C161.548 61.08 162.434 61.3067 163.194 61.76C163.968 62.2133 164.561 62.8667 164.974 63.72C165.388 64.5733 165.594 65.6 165.594 66.8V67.38H158.014C158.068 68.3133 158.321 69.02 158.774 69.5C159.241 69.9667 159.854 70.2 160.614 70.2C161.188 70.2 161.661 70.0733 162.034 69.82C162.421 69.5533 162.688 69.1867 162.834 68.72L165.454 68.88C165.161 69.92 164.581 70.74 163.714 71.34C162.861 71.94 161.821 72.24 160.594 72.24ZM158.014 65.66H162.954C162.901 64.7933 162.654 64.1533 162.214 63.74C161.774 63.3133 161.214 63.1 160.534 63.1C159.854 63.1 159.288 63.32 158.834 63.76C158.394 64.2 158.121 64.8333 158.014 65.66ZM169.753 72C168.98 72 168.36 71.8 167.893 71.4C167.426 71 167.193 70.36 167.193 69.48V57.8H169.753V69.22C169.753 69.4867 169.82 69.6867 169.953 69.82C170.1 69.9533 170.3 70.02 170.553 70.02H171.333V72H169.753ZM177.094 72.24C176.028 72.24 175.101 72.0133 174.314 71.56C173.528 71.0933 172.921 70.44 172.494 69.6C172.068 68.76 171.854 67.78 171.854 66.66C171.854 65.54 172.068 64.5667 172.494 63.74C172.921 62.9 173.521 62.2467 174.294 61.78C175.081 61.3133 175.994 61.08 177.034 61.08C178.048 61.08 178.934 61.3067 179.694 61.76C180.468 62.2133 181.061 62.8667 181.474 63.72C181.888 64.5733 182.094 65.6 182.094 66.8V67.38H174.514C174.568 68.3133 174.821 69.02 175.274 69.5C175.741 69.9667 176.354 70.2 177.114 70.2C177.688 70.2 178.161 70.0733 178.534 69.82C178.921 69.5533 179.188 69.1867 179.334 68.72L181.954 68.88C181.661 69.92 181.081 70.74 180.214 71.34C179.361 71.94 178.321 72.24 177.094 72.24ZM174.514 65.66H179.454C179.401 64.7933 179.154 64.1533 178.714 63.74C178.274 63.3133 177.714 63.1 177.034 63.1C176.354 63.1 175.788 63.32 175.334 63.76C174.894 64.2 174.621 64.8333 174.514 65.66ZM188.235 72.24C187.169 72.24 186.242 72.0133 185.455 71.56C184.669 71.0933 184.055 70.44 183.615 69.6C183.189 68.76 182.975 67.78 182.975 66.66C182.975 65.54 183.189 64.5667 183.615 63.74C184.055 62.9 184.669 62.2467 185.455 61.78C186.242 61.3133 187.169 61.08 188.235 61.08C189.142 61.08 189.949 61.24 190.655 61.56C191.362 61.88 191.935 62.34 192.375 62.94C192.829 63.5267 193.109 64.2467 193.215 65.1L190.575 65.24C190.469 64.56 190.202 64.0467 189.775 63.7C189.362 63.34 188.849 63.16 188.235 63.16C187.409 63.16 186.769 63.4733 186.315 64.1C185.862 64.7133 185.635 65.5667 185.635 66.66C185.635 67.7667 185.862 68.6267 186.315 69.24C186.769 69.8533 187.409 70.16 188.235 70.16C188.862 70.16 189.382 69.98 189.795 69.62C190.222 69.26 190.482 68.7 190.575 67.94L193.215 68.06C193.109 68.9133 192.835 69.6533 192.395 70.28C191.955 70.9067 191.382 71.3933 190.675 71.74C189.969 72.0733 189.155 72.24 188.235 72.24ZM198.41 72C197.344 72 196.557 71.7533 196.05 71.26C195.557 70.7667 195.31 69.9933 195.31 68.94V58.82H197.87V68.7C197.87 69.1933 197.977 69.54 198.19 69.74C198.404 69.9267 198.737 70.02 199.19 70.02H200.69V72H198.41ZM193.63 63.3V61.32H200.69V63.3H193.63ZM212.432 72.32C211.139 72.32 209.999 72.0267 209.012 71.44C208.026 70.84 207.252 69.9933 206.692 68.9C206.132 67.7933 205.852 66.4667 205.852 64.92C205.852 63.4 206.126 62.0867 206.672 60.98C207.219 59.86 207.986 59 208.972 58.4C209.959 57.7867 211.119 57.48 212.452 57.48C214.266 57.48 215.672 57.9333 216.672 58.84C217.672 59.7333 218.326 60.9867 218.632 62.6L215.912 62.74C215.739 61.8067 215.366 61.0733 214.792 60.54C214.219 60.0067 213.439 59.74 212.452 59.74C211.652 59.74 210.959 59.9533 210.372 60.38C209.786 60.8067 209.332 61.4067 209.012 62.18C208.692 62.9533 208.532 63.8667 208.532 64.92C208.532 65.9867 208.692 66.9067 209.012 67.68C209.346 68.44 209.806 69.0267 210.392 69.44C210.979 69.8533 211.659 70.06 212.432 70.06C213.486 70.06 214.299 69.7733 214.872 69.2C215.459 68.6133 215.832 67.8133 215.992 66.8L218.712 66.94C218.526 68.0467 218.166 69.0067 217.632 69.82C217.099 70.62 216.392 71.24 215.512 71.68C214.646 72.1067 213.619 72.32 212.432 72.32ZM222.69 72C221.917 72 221.297 71.8 220.83 71.4C220.364 71 220.13 70.36 220.13 69.48V57.8H222.69V69.22C222.69 69.4867 222.757 69.6867 222.89 69.82C223.037 69.9533 223.237 70.02 223.49 70.02H224.27V72H222.69ZM225.412 72V61.32H227.972V72H225.412ZM225.372 59.9V57.62H228.032V59.9H225.372ZM230.439 75V61.32H232.899L232.959 63.6L232.699 63.48C232.966 62.6933 233.399 62.1 233.999 61.7C234.612 61.2867 235.326 61.08 236.139 61.08C237.152 61.08 237.992 61.3333 238.659 61.84C239.339 62.3467 239.846 63.02 240.179 63.86C240.512 64.7 240.679 65.6333 240.679 66.66C240.679 67.6867 240.506 68.62 240.159 69.46C239.826 70.3 239.319 70.9733 238.639 71.48C237.972 71.9867 237.132 72.24 236.119 72.24C235.586 72.24 235.086 72.1467 234.619 71.96C234.166 71.7733 233.772 71.5067 233.439 71.16C233.119 70.8133 232.892 70.4067 232.759 69.94L232.999 69.74V75H230.439ZM235.519 70.16C236.292 70.16 236.899 69.8533 237.339 69.24C237.792 68.6133 238.019 67.7533 238.019 66.66C238.019 65.5667 237.792 64.7133 237.339 64.1C236.899 63.4733 236.292 63.16 235.519 63.16C234.999 63.16 234.552 63.2933 234.179 63.56C233.806 63.8133 233.512 64.2 233.299 64.72C233.099 65.24 232.999 65.8867 232.999 66.66C232.999 67.4333 233.099 68.08 233.299 68.6C233.499 69.12 233.786 69.5133 234.159 69.78C234.546 70.0333 234.999 70.16 235.519 70.16Z" fill="#FAFAFA"/>
<rect x="27.5" y="953.5" width="330" height="168" stroke="white"/>
<path d="M304 955.5L312 943L322 955.5" stroke="white"/>
<g clip-path="url(#clip3_489_21560)">
<path opacity="0.35" d="M338.667 17.832H355.333C356.53 17.832 357.5 18.8024 357.5 19.999V25.999C357.5 27.1955 356.53 28.165 355.333 28.165H338.667C337.47 28.165 336.5 27.1955 336.5 25.999V19.999L336.511 19.7773C336.622 18.6847 337.545 17.832 338.667 17.832Z" stroke="white"/>
<path opacity="0.4" d="M359 20.998V24.998C359.805 24.6593 360.328 23.8712 360.328 22.998C360.328 22.1249 359.805 21.3368 359 20.998Z" fill="white"/>
<path d="M338 20.6654C338 19.929 338.597 19.332 339.333 19.332H354.667C355.403 19.332 356 19.929 356 20.6654V25.332C356 26.0684 355.403 26.6654 354.667 26.6654H339.333C338.597 26.6654 338 26.0684 338 25.332V20.6654Z" fill="white"/>
<path fill-rule="evenodd" clip-rule="evenodd" d="M323.33 19.6074C325.546 19.6075 327.678 20.4589 329.283 21.9857C329.404 22.1036 329.598 22.1021 329.717 21.9824L330.873 20.8157C330.933 20.755 330.967 20.6728 330.966 20.5872C330.966 20.5016 330.931 20.4198 330.87 20.3597C326.655 16.3202 320.005 16.3202 315.79 20.3597C315.729 20.4197 315.694 20.5015 315.694 20.5871C315.693 20.6727 315.727 20.755 315.787 20.8157L316.943 21.9824C317.062 22.1023 317.256 22.1038 317.377 21.9857C318.983 20.4588 321.114 19.6074 323.33 19.6074ZM323.331 23.404C324.548 23.4039 325.722 23.8564 326.625 24.6736C326.747 24.7896 326.939 24.7871 327.058 24.668L328.213 23.5013C328.273 23.4401 328.307 23.3571 328.306 23.2708C328.305 23.1845 328.27 23.1022 328.208 23.0423C325.46 20.4859 321.204 20.4859 318.456 23.0423C318.393 23.1022 318.358 23.1846 318.357 23.2709C318.356 23.3572 318.39 23.4402 318.451 23.5013L319.606 24.668C319.724 24.7871 319.917 24.7896 320.039 24.6736C320.941 23.857 322.114 23.4045 323.331 23.404ZM325.644 25.9575C325.645 26.044 325.611 26.1274 325.55 26.188L323.552 28.2037C323.494 28.2629 323.414 28.2963 323.331 28.2963C323.247 28.2963 323.167 28.2629 323.109 28.2037L321.111 26.188C321.05 26.1274 321.016 26.044 321.017 25.9575C321.019 25.8709 321.057 25.789 321.121 25.731C322.396 24.6522 324.265 24.6522 325.54 25.731C325.604 25.7891 325.642 25.871 325.644 25.9575Z" fill="white"/>
<path fill-rule="evenodd" clip-rule="evenodd" d="M309.667 17.666H308.667C308.114 17.666 307.667 18.1137 307.667 18.666V27.3327C307.667 27.885 308.114 28.3327 308.667 28.3327H309.667C310.219 28.3327 310.667 27.885 310.667 27.3327V18.666C310.667 18.1137 310.219 17.666 309.667 17.666ZM304 20H305C305.552 20 306 20.4477 306 21V27.3333C306 27.8856 305.552 28.3333 305 28.3333H304C303.448 28.3333 303 27.8856 303 27.3333V21C303 20.4477 303.448 20 304 20ZM300.333 22.332H299.333C298.781 22.332 298.333 22.7797 298.333 23.332V27.332C298.333 27.8843 298.781 28.332 299.333 28.332H300.333C300.886 28.332 301.333 27.8843 301.333 27.332V23.332C301.333 22.7797 300.886 22.332 300.333 22.332ZM295.667 24.332H294.667C294.114 24.332 293.667 24.7797 293.667 25.332V27.332C293.667 27.8843 294.114 28.332 294.667 28.332H295.667C296.219 28.332 296.667 27.8843 296.667 27.332V25.332C296.667 24.7797 296.219 24.332 295.667 24.332Z" fill="white"/>
<path d="M37.3207 28.2568C40.0087 28.2568 41.6053 26.1548 41.6053 22.5952C41.6053 21.2549 41.349 20.127 40.8583 19.2554C40.1478 17.9004 38.9247 17.168 37.3793 17.168C35.0795 17.168 33.4535 18.7134 33.4535 20.8813C33.4535 22.9175 34.9183 24.397 36.9325 24.397C38.1703 24.397 39.1737 23.8184 39.6718 22.8149H39.6937C39.6937 22.8149 39.723 22.8149 39.7303 22.8149C39.745 22.8149 39.7963 22.8149 39.7963 22.8149C39.7963 25.2319 38.8807 26.6748 37.3353 26.6748C36.4271 26.6748 35.724 26.1768 35.4823 25.3784H33.6C33.9149 27.1143 35.3871 28.2568 37.3207 28.2568ZM37.3866 22.8955C36.1708 22.8955 35.3065 22.0312 35.3065 20.8228C35.3065 19.6436 36.2147 18.7427 37.3939 18.7427C38.5731 18.7427 39.4813 19.6582 39.4813 20.8521C39.4813 22.0312 38.5951 22.8955 37.3866 22.8955Z" fill="white"/>
<path d="M44.6965 28.1543C45.3923 28.1543 45.8683 27.6562 45.8683 26.9971C45.8683 26.3306 45.3923 25.8398 44.6965 25.8398C44.008 25.8398 43.5246 26.3306 43.5246 26.9971C43.5246 27.6562 44.008 28.1543 44.6965 28.1543ZM44.6965 22.6611C45.3923 22.6611 45.8683 22.1704 45.8683 21.5112C45.8683 20.8447 45.3923 20.354 44.6965 20.354C44.008 20.354 43.5246 20.8447 43.5246 21.5112C43.5246 22.1704 44.008 22.6611 44.6965 22.6611Z" fill="white"/>
<path d="M52.7241 28.0005H54.5332V26.0303H55.9614V24.4336H54.5332V17.4316H51.8672C49.9995 20.2441 48.5127 22.5952 47.5605 24.3457V26.0303H52.7241V28.0005ZM49.311 24.3677C50.5415 22.1997 51.6401 20.4639 52.6509 18.9697H52.7534V24.4775H49.311V24.3677Z" fill="white"/>
<path d="M59.99 28.0005H61.8797V17.4316H59.9973L57.2361 19.3652V21.1816L59.8655 19.3359H59.99V28.0005Z" fill="white"/>
</g>
</g>
<defs>
<filter id="filter0_d_489_21560" x="26" y="1232" width="144" height="44" filterUnits="userSpaceOnUse" color-interpolation-filters="sRGB">
<feFlood flood-opacity="0" result="BackgroundImageFix"/>
<feColorMatrix in="SourceAlpha" type="matrix" values="0 0 0 0 0 0 0 0 0 0 0 0 0 0 0 0 0 0 127 0" result="hardAlpha"/>
<feOffset dy="1"/>
<feGaussianBlur stdDeviation="1"/>
<feComposite in2="hardAlpha" operator="out"/>
<feColorMatrix type="matrix" values="0 0 0 0 0 0 0 0 0 0 0 0 0 0 0 0 0 0 0.05 0"/>
<feBlend mode="normal" in2="BackgroundImageFix" result="effect1_dropShadow_489_21560"/>
<feBlend mode="normal" in="SourceGraphic" in2="effect1_dropShadow_489_21560" result="shape"/>
</filter>
<filter id="filter1_d_489_21560" x="207" y="1232" width="144" height="44" filterUnits="userSpaceOnUse" color-interpolation-filters="sRGB">
<feFlood flood-opacity="0" result="BackgroundImageFix"/>
<feColorMatrix in="SourceAlpha" type="matrix" values="0 0 0 0 0 0 0 0 0 0 0 0 0 0 0 0 0 0 127 0" result="hardAlpha"/>
<feOffset dy="1"/>
<feGaussianBlur stdDeviation="1"/>
<feComposite in2="hardAlpha" operator="out"/>
<feColorMatrix type="matrix" values="0 0 0 0 0 0 0 0 0 0 0 0 0 0 0 0 0 0 0.05 0"/>
<feBlend mode="normal" in2="BackgroundImageFix" result="effect1_dropShadow_489_21560"/>
<feBlend mode="normal" in="SourceGraphic" in2="effect1_dropShadow_489_21560" result="shape"/>
</filter>
<clipPath id="clip0_489_21560">
<rect width="375" height="1309" rx="40" fill="white"/>
</clipPath>
<clipPath id="clip1_489_21560">
<rect width="48" height="48" fill="white" transform="translate(10 42)"/>
</clipPath>
<clipPath id="clip2_489_21560">
<rect width="48" height="48" fill="white" transform="translate(10 41)"/>
</clipPath>
<clipPath id="clip3_489_21560">
<rect width="375" height="44" fill="white"/>
</clipPath>
</defs>
</svg>
